G04 #@! TF.GenerationSoftware,KiCad,Pcbnew,(6.0.4)*
G04 #@! TF.CreationDate,2025-04-28T20:29:24+10:00*
G04 #@! TF.ProjectId,OpenXstim,4f70656e-5873-4746-996d-2e6b69636164,rev?*
G04 #@! TF.SameCoordinates,Original*
G04 #@! TF.FileFunction,Legend,Bot*
G04 #@! TF.FilePolarity,Positive*
%FSLAX46Y46*%
G04 Gerber Fmt 4.6, Leading zero omitted, Abs format (unit mm)*
G04 Created by KiCad (PCBNEW (6.0.4)) date 2025-04-28 20:29:24*
%MOMM*%
%LPD*%
G01*
G04 APERTURE LIST*
%ADD10C,0.300000*%
%ADD11C,0.150000*%
%ADD12C,0.120000*%
%ADD13R,1.700000X1.700000*%
%ADD14O,1.700000X1.700000*%
%ADD15C,2.600000*%
%ADD16C,1.800000*%
%ADD17R,1.800000X1.800000*%
%ADD18O,1.508000X3.016000*%
%ADD19O,3.016000X1.508000*%
%ADD20R,2.000000X2.000000*%
%ADD21C,2.000000*%
%ADD22R,1.408000X1.408000*%
%ADD23C,1.408000*%
%ADD24R,1.600000X1.600000*%
%ADD25O,1.600000X1.600000*%
G04 APERTURE END LIST*
D10*
X228698528Y-97810685D02*
X228698528Y-97524971D01*
X228627100Y-97382114D01*
X228484242Y-97239257D01*
X228198528Y-97167828D01*
X227698528Y-97167828D01*
X227412814Y-97239257D01*
X227269957Y-97382114D01*
X227198528Y-97524971D01*
X227198528Y-97810685D01*
X227269957Y-97953542D01*
X227412814Y-98096400D01*
X227698528Y-98167828D01*
X228198528Y-98167828D01*
X228484242Y-98096400D01*
X228627100Y-97953542D01*
X228698528Y-97810685D01*
X228198528Y-96524971D02*
X226698528Y-96524971D01*
X228127100Y-96524971D02*
X228198528Y-96382114D01*
X228198528Y-96096400D01*
X228127100Y-95953542D01*
X228055671Y-95882114D01*
X227912814Y-95810685D01*
X227484242Y-95810685D01*
X227341385Y-95882114D01*
X227269957Y-95953542D01*
X227198528Y-96096400D01*
X227198528Y-96382114D01*
X227269957Y-96524971D01*
X227269957Y-94596400D02*
X227198528Y-94739257D01*
X227198528Y-95024971D01*
X227269957Y-95167828D01*
X227412814Y-95239257D01*
X227984242Y-95239257D01*
X228127100Y-95167828D01*
X228198528Y-95024971D01*
X228198528Y-94739257D01*
X228127100Y-94596400D01*
X227984242Y-94524971D01*
X227841385Y-94524971D01*
X227698528Y-95239257D01*
X228198528Y-93882114D02*
X227198528Y-93882114D01*
X228055671Y-93882114D02*
X228127100Y-93810685D01*
X228198528Y-93667828D01*
X228198528Y-93453542D01*
X228127100Y-93310685D01*
X227984242Y-93239257D01*
X227198528Y-93239257D01*
X228698528Y-92667828D02*
X227198528Y-91667828D01*
X228698528Y-91667828D02*
X227198528Y-92667828D01*
X227269957Y-91167828D02*
X227198528Y-91024971D01*
X227198528Y-90739257D01*
X227269957Y-90596400D01*
X227412814Y-90524971D01*
X227484242Y-90524971D01*
X227627100Y-90596400D01*
X227698528Y-90739257D01*
X227698528Y-90953542D01*
X227769957Y-91096400D01*
X227912814Y-91167828D01*
X227984242Y-91167828D01*
X228127100Y-91096400D01*
X228198528Y-90953542D01*
X228198528Y-90739257D01*
X228127100Y-90596400D01*
X228198528Y-90096400D02*
X228198528Y-89524971D01*
X228698528Y-89882114D02*
X227412814Y-89882114D01*
X227269957Y-89810685D01*
X227198528Y-89667828D01*
X227198528Y-89524971D01*
X227198528Y-89024971D02*
X228198528Y-89024971D01*
X228698528Y-89024971D02*
X228627100Y-89096400D01*
X228555671Y-89024971D01*
X228627100Y-88953542D01*
X228698528Y-89024971D01*
X228555671Y-89024971D01*
X227198528Y-88310685D02*
X228198528Y-88310685D01*
X228055671Y-88310685D02*
X228127100Y-88239257D01*
X228198528Y-88096400D01*
X228198528Y-87882114D01*
X228127100Y-87739257D01*
X227984242Y-87667828D01*
X227198528Y-87667828D01*
X227984242Y-87667828D02*
X228127100Y-87596400D01*
X228198528Y-87453542D01*
X228198528Y-87239257D01*
X228127100Y-87096400D01*
X227984242Y-87024971D01*
X227198528Y-87024971D01*
X228555671Y-86382114D02*
X228627100Y-86310685D01*
X228698528Y-86167828D01*
X228698528Y-85810685D01*
X228627100Y-85667828D01*
X228555671Y-85596400D01*
X228412814Y-85524971D01*
X228269957Y-85524971D01*
X228055671Y-85596400D01*
X227198528Y-86453542D01*
X227198528Y-85524971D01*
X225783528Y-109667828D02*
X224783528Y-109382114D01*
X225497814Y-109096400D01*
X224783528Y-108810685D01*
X225783528Y-108524971D01*
X225783528Y-108096400D02*
X224783528Y-107810685D01*
X225497814Y-107524971D01*
X224783528Y-107239257D01*
X225783528Y-106953542D01*
X225783528Y-106524971D02*
X224783528Y-106239257D01*
X225497814Y-105953542D01*
X224783528Y-105667828D01*
X225783528Y-105382114D01*
X224926385Y-104810685D02*
X224854957Y-104739257D01*
X224783528Y-104810685D01*
X224854957Y-104882114D01*
X224926385Y-104810685D01*
X224783528Y-104810685D01*
X224783528Y-103882114D02*
X224854957Y-104024971D01*
X224926385Y-104096400D01*
X225069242Y-104167828D01*
X225497814Y-104167828D01*
X225640671Y-104096400D01*
X225712100Y-104024971D01*
X225783528Y-103882114D01*
X225783528Y-103667828D01*
X225712100Y-103524971D01*
X225640671Y-103453542D01*
X225497814Y-103382114D01*
X225069242Y-103382114D01*
X224926385Y-103453542D01*
X224854957Y-103524971D01*
X224783528Y-103667828D01*
X224783528Y-103882114D01*
X225783528Y-102739257D02*
X224283528Y-102739257D01*
X225712100Y-102739257D02*
X225783528Y-102596400D01*
X225783528Y-102310685D01*
X225712100Y-102167828D01*
X225640671Y-102096400D01*
X225497814Y-102024971D01*
X225069242Y-102024971D01*
X224926385Y-102096400D01*
X224854957Y-102167828D01*
X224783528Y-102310685D01*
X224783528Y-102596400D01*
X224854957Y-102739257D01*
X224854957Y-100810685D02*
X224783528Y-100953542D01*
X224783528Y-101239257D01*
X224854957Y-101382114D01*
X224997814Y-101453542D01*
X225569242Y-101453542D01*
X225712100Y-101382114D01*
X225783528Y-101239257D01*
X225783528Y-100953542D01*
X225712100Y-100810685D01*
X225569242Y-100739257D01*
X225426385Y-100739257D01*
X225283528Y-101453542D01*
X225783528Y-100096400D02*
X224783528Y-100096400D01*
X225640671Y-100096400D02*
X225712100Y-100024971D01*
X225783528Y-99882114D01*
X225783528Y-99667828D01*
X225712100Y-99524971D01*
X225569242Y-99453542D01*
X224783528Y-99453542D01*
X224783528Y-98739257D02*
X225783528Y-98739257D01*
X225640671Y-98739257D02*
X225712100Y-98667828D01*
X225783528Y-98524971D01*
X225783528Y-98310685D01*
X225712100Y-98167828D01*
X225569242Y-98096400D01*
X224783528Y-98096400D01*
X225569242Y-98096400D02*
X225712100Y-98024971D01*
X225783528Y-97882114D01*
X225783528Y-97667828D01*
X225712100Y-97524971D01*
X225569242Y-97453542D01*
X224783528Y-97453542D01*
X224854957Y-96167828D02*
X224783528Y-96310685D01*
X224783528Y-96596400D01*
X224854957Y-96739257D01*
X224997814Y-96810685D01*
X225569242Y-96810685D01*
X225712100Y-96739257D01*
X225783528Y-96596400D01*
X225783528Y-96310685D01*
X225712100Y-96167828D01*
X225569242Y-96096400D01*
X225426385Y-96096400D01*
X225283528Y-96810685D01*
X224783528Y-94810685D02*
X226283528Y-94810685D01*
X224854957Y-94810685D02*
X224783528Y-94953542D01*
X224783528Y-95239257D01*
X224854957Y-95382114D01*
X224926385Y-95453542D01*
X225069242Y-95524971D01*
X225497814Y-95524971D01*
X225640671Y-95453542D01*
X225712100Y-95382114D01*
X225783528Y-95239257D01*
X225783528Y-94953542D01*
X225712100Y-94810685D01*
X225783528Y-94310685D02*
X225783528Y-93739257D01*
X226283528Y-94096400D02*
X224997814Y-94096400D01*
X224854957Y-94024971D01*
X224783528Y-93882114D01*
X224783528Y-93739257D01*
X224854957Y-92667828D02*
X224783528Y-92810685D01*
X224783528Y-93096400D01*
X224854957Y-93239257D01*
X224997814Y-93310685D01*
X225569242Y-93310685D01*
X225712100Y-93239257D01*
X225783528Y-93096400D01*
X225783528Y-92810685D01*
X225712100Y-92667828D01*
X225569242Y-92596400D01*
X225426385Y-92596400D01*
X225283528Y-93310685D01*
X224854957Y-91310685D02*
X224783528Y-91453542D01*
X224783528Y-91739257D01*
X224854957Y-91882114D01*
X224926385Y-91953542D01*
X225069242Y-92024971D01*
X225497814Y-92024971D01*
X225640671Y-91953542D01*
X225712100Y-91882114D01*
X225783528Y-91739257D01*
X225783528Y-91453542D01*
X225712100Y-91310685D01*
X224783528Y-90667828D02*
X226283528Y-90667828D01*
X224783528Y-90024971D02*
X225569242Y-90024971D01*
X225712100Y-90096400D01*
X225783528Y-90239257D01*
X225783528Y-90453542D01*
X225712100Y-90596400D01*
X225640671Y-90667828D01*
X225354957Y-89310685D02*
X225354957Y-88167828D01*
X224783528Y-87239257D02*
X224854957Y-87382114D01*
X224997814Y-87453542D01*
X226283528Y-87453542D01*
X224783528Y-86024971D02*
X225569242Y-86024971D01*
X225712100Y-86096400D01*
X225783528Y-86239257D01*
X225783528Y-86524971D01*
X225712100Y-86667828D01*
X224854957Y-86024971D02*
X224783528Y-86167828D01*
X224783528Y-86524971D01*
X224854957Y-86667828D01*
X224997814Y-86739257D01*
X225140671Y-86739257D01*
X225283528Y-86667828D01*
X225354957Y-86524971D01*
X225354957Y-86167828D01*
X225426385Y-86024971D01*
X224783528Y-85310685D02*
X226283528Y-85310685D01*
X225712100Y-85310685D02*
X225783528Y-85167828D01*
X225783528Y-84882114D01*
X225712100Y-84739257D01*
X225640671Y-84667828D01*
X225497814Y-84596400D01*
X225069242Y-84596400D01*
X224926385Y-84667828D01*
X224854957Y-84739257D01*
X224783528Y-84882114D01*
X224783528Y-85167828D01*
X224854957Y-85310685D01*
X224926385Y-83953542D02*
X224854957Y-83882114D01*
X224783528Y-83953542D01*
X224854957Y-84024971D01*
X224926385Y-83953542D01*
X224783528Y-83953542D01*
X225783528Y-82596400D02*
X224569242Y-82596400D01*
X224426385Y-82667828D01*
X224354957Y-82739257D01*
X224283528Y-82882114D01*
X224283528Y-83096400D01*
X224354957Y-83239257D01*
X224854957Y-82596400D02*
X224783528Y-82739257D01*
X224783528Y-83024971D01*
X224854957Y-83167828D01*
X224926385Y-83239257D01*
X225069242Y-83310685D01*
X225497814Y-83310685D01*
X225640671Y-83239257D01*
X225712100Y-83167828D01*
X225783528Y-83024971D01*
X225783528Y-82739257D01*
X225712100Y-82596400D01*
X224783528Y-81882114D02*
X225783528Y-81882114D01*
X226283528Y-81882114D02*
X226212100Y-81953542D01*
X226140671Y-81882114D01*
X226212100Y-81810685D01*
X226283528Y-81882114D01*
X226140671Y-81882114D01*
X225783528Y-81382114D02*
X225783528Y-80810685D01*
X226283528Y-81167828D02*
X224997814Y-81167828D01*
X224854957Y-81096400D01*
X224783528Y-80953542D01*
X224783528Y-80810685D01*
X224783528Y-80310685D02*
X226283528Y-80310685D01*
X224783528Y-79667828D02*
X225569242Y-79667828D01*
X225712100Y-79739257D01*
X225783528Y-79882114D01*
X225783528Y-80096400D01*
X225712100Y-80239257D01*
X225640671Y-80310685D01*
X225783528Y-78310685D02*
X224783528Y-78310685D01*
X225783528Y-78953542D02*
X224997814Y-78953542D01*
X224854957Y-78882114D01*
X224783528Y-78739257D01*
X224783528Y-78524971D01*
X224854957Y-78382114D01*
X224926385Y-78310685D01*
X224783528Y-77596400D02*
X226283528Y-77596400D01*
X225712100Y-77596400D02*
X225783528Y-77453542D01*
X225783528Y-77167828D01*
X225712100Y-77024971D01*
X225640671Y-76953542D01*
X225497814Y-76882114D01*
X225069242Y-76882114D01*
X224926385Y-76953542D01*
X224854957Y-77024971D01*
X224783528Y-77167828D01*
X224783528Y-77453542D01*
X224854957Y-77596400D01*
X224926385Y-76239257D02*
X224854957Y-76167828D01*
X224783528Y-76239257D01*
X224854957Y-76310685D01*
X224926385Y-76239257D01*
X224783528Y-76239257D01*
X224783528Y-75524971D02*
X225783528Y-75524971D01*
X226283528Y-75524971D02*
X226212100Y-75596400D01*
X226140671Y-75524971D01*
X226212100Y-75453542D01*
X226283528Y-75524971D01*
X226140671Y-75524971D01*
X224783528Y-74596400D02*
X224854957Y-74739257D01*
X224926385Y-74810685D01*
X225069242Y-74882114D01*
X225497814Y-74882114D01*
X225640671Y-74810685D01*
X225712100Y-74739257D01*
X225783528Y-74596400D01*
X225783528Y-74382114D01*
X225712100Y-74239257D01*
X225640671Y-74167828D01*
X225497814Y-74096400D01*
X225069242Y-74096400D01*
X224926385Y-74167828D01*
X224854957Y-74239257D01*
X224783528Y-74382114D01*
X224783528Y-74596400D01*
D11*
X202669685Y-116574866D02*
X202193495Y-116574866D01*
X202764923Y-116860580D02*
X202431590Y-115860580D01*
X202098257Y-116860580D01*
X201241114Y-116860580D02*
X201812542Y-116860580D01*
X201526828Y-116860580D02*
X201526828Y-115860580D01*
X201622066Y-116003438D01*
X201717304Y-116098676D01*
X201812542Y-116146295D01*
D12*
X167637000Y-84986400D02*
X167637000Y-73306400D01*
X173987000Y-63776400D02*
X238637000Y-63776400D01*
X240287000Y-114706400D02*
X240287000Y-117376400D01*
X173987000Y-117376400D02*
X173987000Y-114196400D01*
X238637000Y-63776400D02*
X240287000Y-65426400D01*
X240287000Y-76856400D02*
X242827000Y-79396400D01*
X173987000Y-84986400D02*
X167637000Y-84986400D01*
X172087000Y-105056400D02*
X173987000Y-105056400D01*
X242827000Y-79396400D02*
X242827000Y-112166400D01*
X242827000Y-112166400D02*
X240287000Y-114706400D01*
X173987000Y-73306400D02*
X173987000Y-63776400D01*
X240287000Y-65426400D02*
X240287000Y-76856400D01*
X172087000Y-114196400D02*
X172087000Y-105056400D01*
X167637000Y-73306400D02*
X173987000Y-73306400D01*
X173987000Y-105056400D02*
X173987000Y-84986400D01*
X173987000Y-114196400D02*
X172087000Y-114196400D01*
X240287000Y-117376400D02*
X173987000Y-117376400D01*
%LPC*%
D13*
X237241000Y-104292400D03*
D14*
X234701000Y-104292400D03*
D15*
X209448400Y-95109600D03*
X209448400Y-83909600D03*
D16*
X216948400Y-92009600D03*
X216948400Y-87009600D03*
X216948400Y-89509600D03*
D17*
X202448400Y-92009600D03*
D16*
X202448400Y-87009600D03*
D18*
X239636000Y-97332800D03*
D19*
X234936000Y-100732800D03*
X234936000Y-93732800D03*
D20*
X180949600Y-84490400D03*
D21*
X180949600Y-92090400D03*
D13*
X234640200Y-76809600D03*
D14*
X237180200Y-76809600D03*
D13*
X177008000Y-101396800D03*
D14*
X179548000Y-101396800D03*
X187168000Y-101396800D03*
X189708000Y-101396800D03*
X192248000Y-101396800D03*
X194788000Y-101396800D03*
D13*
X222212800Y-70764400D03*
D14*
X224752800Y-70764400D03*
X227292800Y-70764400D03*
X229832800Y-70764400D03*
D18*
X239585200Y-83667600D03*
D19*
X234885200Y-87067600D03*
X234885200Y-80067600D03*
D13*
X177008000Y-80111600D03*
D14*
X179548000Y-80111600D03*
X187168000Y-80111600D03*
X189708000Y-80111600D03*
X192248000Y-80111600D03*
X194788000Y-80111600D03*
D13*
X176530000Y-67152600D03*
D14*
X176530000Y-69692600D03*
D22*
X178645100Y-114046000D03*
D23*
X181145100Y-114046000D03*
X183645100Y-114046000D03*
D13*
X237241000Y-90525600D03*
D14*
X234701000Y-90525600D03*
D24*
X202057000Y-114706400D03*
D25*
X204597000Y-114706400D03*
X207137000Y-114706400D03*
X209677000Y-114706400D03*
X212217000Y-114706400D03*
X214757000Y-114706400D03*
X217297000Y-114706400D03*
X219837000Y-114706400D03*
X224917000Y-114706400D03*
X227457000Y-114706400D03*
X229997000Y-114706400D03*
X232537000Y-114706400D03*
X235077000Y-114706400D03*
X237617000Y-114706400D03*
X237617000Y-66446400D03*
X235077000Y-66446400D03*
X232537000Y-66446400D03*
X229997000Y-66446400D03*
X227457000Y-66446400D03*
X224917000Y-66446400D03*
X222377000Y-66446400D03*
X219837000Y-66446400D03*
X215777000Y-66446400D03*
X213237000Y-66446400D03*
X210697000Y-66446400D03*
X208157000Y-66446400D03*
X205617000Y-66446400D03*
X203077000Y-66446400D03*
X200537000Y-66446400D03*
X197997000Y-66446400D03*
X195457000Y-66446400D03*
X192917000Y-66446400D03*
M02*
