M48
; DRILL file {KiCad (6.0.4)} date Mon Apr 28 20:29:20 2025
; FORMAT={-:-/ absolute / metric / decimal}
; #@! TF.CreationDate,2025-04-28T20:29:20+10:00
; #@! TF.GenerationSoftware,Kicad,Pcbnew,(6.0.4)
; #@! TF.FileFunction,Plated,1,2,PTH
FMAT,2
METRIC
; #@! TA.AperFunction,Plated,PTH,ViaDrill
T1C0.350
; #@! TA.AperFunction,Plated,PTH,ComponentDrill
T2C0.900
; #@! TA.AperFunction,Plated,PTH,ComponentDrill
T3C1.000
; #@! TA.AperFunction,Plated,PTH,ComponentDrill
T4C1.200
%
G90
G05
T1
X199.821Y-80.385
X203.541Y-77.368
X203.544Y-69.067
X209.347Y-79.858
X209.797Y-77.304
X213.614Y-74.727
X216.367Y-79.696
X216.408Y-69.698
X217.585Y-82.997
X218.796Y-74.422
X218.84Y-99.925
X219.485Y-108.332
X219.515Y-95.862
X221.026Y-89.617
X221.458Y-107.626
X222.148Y-93.675
X224.136Y-92.005
X224.78Y-110.083
X224.786Y-90.207
X226.466Y-95.301
X227.33Y-101.295
X227.482Y-81.483
X227.584Y-76.403
X229.261Y-103.033
X229.819Y-82.88
X229.921Y-86.004
X229.921Y-105.867
X231.292Y-91.338
T2
X178.645Y-114.046
X181.145Y-114.046
X183.645Y-114.046
T3
X176.53Y-67.153
X176.53Y-69.693
X177.008Y-80.112
X177.008Y-101.397
X179.548Y-80.112
X179.548Y-101.397
X180.95Y-84.49
X180.95Y-92.09
X187.168Y-80.112
X187.168Y-101.397
X189.708Y-80.112
X189.708Y-101.397
X192.248Y-80.112
X192.248Y-101.397
X192.917Y-66.446
X194.788Y-80.112
X194.788Y-101.397
X195.457Y-66.446
X197.997Y-66.446
X200.537Y-66.446
X202.057Y-114.706
X203.077Y-66.446
X204.597Y-114.706
X205.617Y-66.446
X207.137Y-114.706
X208.157Y-66.446
X209.677Y-114.706
X210.697Y-66.446
X212.217Y-114.706
X213.237Y-66.446
X214.757Y-114.706
X215.777Y-66.446
X217.297Y-114.706
X219.837Y-66.446
X219.837Y-114.706
X222.213Y-70.764
X222.377Y-66.446
X224.753Y-70.764
X224.917Y-66.446
X224.917Y-114.706
X227.293Y-70.764
X227.457Y-66.446
X227.457Y-114.706
X229.833Y-70.764
X229.997Y-66.446
X229.997Y-114.706
X232.537Y-66.446
X232.537Y-114.706
X234.64Y-76.81
X234.701Y-90.526
X234.701Y-104.292
X235.077Y-66.446
X235.077Y-114.706
X237.18Y-76.81
X237.241Y-90.526
X237.241Y-104.292
X237.617Y-66.446
X237.617Y-114.706
T4
X202.448Y-87.01
X202.448Y-92.01
X216.948Y-87.01
X216.948Y-89.51
X216.948Y-92.01
T3
X235.385Y-80.068G85X234.385Y-80.068
G05
X235.385Y-87.068G85X234.385Y-87.068
G05
X235.436Y-93.733G85X234.436Y-93.733
G05
X235.436Y-100.733G85X234.436Y-100.733
G05
X239.585Y-84.168G85X239.585Y-83.168
G05
X239.636Y-97.833G85X239.636Y-96.833
G05
T0
M30
