G04 #@! TF.GenerationSoftware,KiCad,Pcbnew,(6.0.4)*
G04 #@! TF.CreationDate,2025-04-28T20:29:24+10:00*
G04 #@! TF.ProjectId,OpenXstim,4f70656e-5873-4746-996d-2e6b69636164,rev?*
G04 #@! TF.SameCoordinates,Original*
G04 #@! TF.FileFunction,Soldermask,Top*
G04 #@! TF.FilePolarity,Negative*
%FSLAX46Y46*%
G04 Gerber Fmt 4.6, Leading zero omitted, Abs format (unit mm)*
G04 Created by KiCad (PCBNEW (6.0.4)) date 2025-04-28 20:29:24*
%MOMM*%
%LPD*%
G01*
G04 APERTURE LIST*
G04 Aperture macros list*
%AMRoundRect*
0 Rectangle with rounded corners*
0 $1 Rounding radius*
0 $2 $3 $4 $5 $6 $7 $8 $9 X,Y pos of 4 corners*
0 Add a 4 corners polygon primitive as box body*
4,1,4,$2,$3,$4,$5,$6,$7,$8,$9,$2,$3,0*
0 Add four circle primitives for the rounded corners*
1,1,$1+$1,$2,$3*
1,1,$1+$1,$4,$5*
1,1,$1+$1,$6,$7*
1,1,$1+$1,$8,$9*
0 Add four rect primitives between the rounded corners*
20,1,$1+$1,$2,$3,$4,$5,0*
20,1,$1+$1,$4,$5,$6,$7,0*
20,1,$1+$1,$6,$7,$8,$9,0*
20,1,$1+$1,$8,$9,$2,$3,0*%
G04 Aperture macros list end*
%ADD10RoundRect,0.250000X0.262500X0.450000X-0.262500X0.450000X-0.262500X-0.450000X0.262500X-0.450000X0*%
%ADD11RoundRect,0.250000X1.250000X0.550000X-1.250000X0.550000X-1.250000X-0.550000X1.250000X-0.550000X0*%
%ADD12R,0.355600X1.473200*%
%ADD13R,5.029200X3.251200*%
%ADD14RoundRect,0.250000X0.450000X-0.262500X0.450000X0.262500X-0.450000X0.262500X-0.450000X-0.262500X0*%
%ADD15RoundRect,0.250000X-0.262500X-0.450000X0.262500X-0.450000X0.262500X0.450000X-0.262500X0.450000X0*%
%ADD16RoundRect,0.250000X-0.250000X-0.475000X0.250000X-0.475000X0.250000X0.475000X-0.250000X0.475000X0*%
%ADD17RoundRect,0.250000X-0.550000X1.250000X-0.550000X-1.250000X0.550000X-1.250000X0.550000X1.250000X0*%
%ADD18R,1.700000X1.700000*%
%ADD19O,1.700000X1.700000*%
%ADD20RoundRect,0.150000X-0.150000X0.825000X-0.150000X-0.825000X0.150000X-0.825000X0.150000X0.825000X0*%
%ADD21R,2.000000X1.500000*%
%ADD22R,2.000000X3.800000*%
%ADD23RoundRect,0.250000X0.475000X-0.250000X0.475000X0.250000X-0.475000X0.250000X-0.475000X-0.250000X0*%
%ADD24RoundRect,0.250000X0.250000X0.475000X-0.250000X0.475000X-0.250000X-0.475000X0.250000X-0.475000X0*%
%ADD25R,0.600000X1.800000*%
%ADD26R,6.000000X2.400000*%
%ADD27C,2.600000*%
%ADD28C,1.800000*%
%ADD29R,1.800000X1.800000*%
%ADD30O,1.508000X3.016000*%
%ADD31O,3.016000X1.508000*%
%ADD32R,2.000000X2.000000*%
%ADD33C,2.000000*%
%ADD34R,0.482600X1.447800*%
%ADD35RoundRect,0.250000X-0.375000X-0.625000X0.375000X-0.625000X0.375000X0.625000X-0.375000X0.625000X0*%
%ADD36RoundRect,0.250000X0.650000X-0.325000X0.650000X0.325000X-0.650000X0.325000X-0.650000X-0.325000X0*%
%ADD37RoundRect,0.250000X-0.450000X0.262500X-0.450000X-0.262500X0.450000X-0.262500X0.450000X0.262500X0*%
%ADD38RoundRect,0.250000X1.950000X1.000000X-1.950000X1.000000X-1.950000X-1.000000X1.950000X-1.000000X0*%
%ADD39R,1.408000X1.408000*%
%ADD40C,1.408000*%
%ADD41RoundRect,0.250000X-0.475000X0.250000X-0.475000X-0.250000X0.475000X-0.250000X0.475000X0.250000X0*%
%ADD42RoundRect,0.250000X0.550000X-1.250000X0.550000X1.250000X-0.550000X1.250000X-0.550000X-1.250000X0*%
%ADD43R,1.600000X1.600000*%
%ADD44O,1.600000X1.600000*%
G04 APERTURE END LIST*
D10*
X239113700Y-73507600D03*
X237288700Y-73507600D03*
D11*
X214290000Y-101701600D03*
X209890000Y-101701600D03*
D12*
X208756199Y-70332600D03*
X208106200Y-70332600D03*
X207456202Y-70332600D03*
X206806201Y-70332600D03*
X206156202Y-70332600D03*
X205506201Y-70332600D03*
X204856202Y-70332600D03*
X204206201Y-70332600D03*
X203556202Y-70332600D03*
X202906201Y-70332600D03*
X202256202Y-70332600D03*
X201606201Y-70332600D03*
X201606201Y-75971400D03*
X202256200Y-75971400D03*
X202906201Y-75971400D03*
X203556199Y-75971400D03*
X204206201Y-75971400D03*
X204856199Y-75971400D03*
X205506198Y-75971400D03*
X206156199Y-75971400D03*
X206806198Y-75971400D03*
X207456199Y-75971400D03*
X208106198Y-75971400D03*
X208756199Y-75971400D03*
D13*
X205181200Y-73152000D03*
D14*
X229666800Y-102004500D03*
X229666800Y-100179500D03*
D15*
X193803900Y-71221600D03*
X195628900Y-71221600D03*
D16*
X229224800Y-112471200D03*
X231124800Y-112471200D03*
D14*
X229819200Y-81835000D03*
X229819200Y-80010000D03*
D15*
X186336300Y-82905600D03*
X188161300Y-82905600D03*
D17*
X204774800Y-106816800D03*
X204774800Y-111216800D03*
D18*
X237241000Y-104292400D03*
D19*
X234701000Y-104292400D03*
D20*
X214147400Y-106338600D03*
X212877400Y-106338600D03*
X211607400Y-106338600D03*
X210337400Y-106338600D03*
X210337400Y-111288600D03*
X211607400Y-111288600D03*
X212877400Y-111288600D03*
X214147400Y-111288600D03*
D21*
X190245600Y-104888000D03*
X190245600Y-107188000D03*
X190245600Y-109488000D03*
D22*
X196545600Y-107188000D03*
D23*
X211175600Y-77861200D03*
X211175600Y-75961200D03*
D24*
X202219600Y-78689200D03*
X200319600Y-78689200D03*
D25*
X227680200Y-83204400D03*
X226410200Y-83204400D03*
X225140200Y-83204400D03*
X223870200Y-83204400D03*
X223870200Y-88804400D03*
X225140200Y-88804400D03*
X226410200Y-88804400D03*
X227680200Y-88804400D03*
D26*
X225755200Y-86004400D03*
D27*
X209448400Y-95109600D03*
X209448400Y-83909600D03*
D28*
X216948400Y-92009600D03*
X216948400Y-87009600D03*
X216948400Y-89509600D03*
D29*
X202448400Y-92009600D03*
D28*
X202448400Y-87009600D03*
D25*
X227477000Y-103067200D03*
X226207000Y-103067200D03*
X224937000Y-103067200D03*
X223667000Y-103067200D03*
X223667000Y-108667200D03*
X224937000Y-108667200D03*
X226207000Y-108667200D03*
X227477000Y-108667200D03*
D26*
X225552000Y-105867200D03*
D30*
X239636000Y-97332800D03*
D31*
X234936000Y-100732800D03*
X234936000Y-93732800D03*
D32*
X180949600Y-84490400D03*
D33*
X180949600Y-92090400D03*
D15*
X214073100Y-82194400D03*
X215898100Y-82194400D03*
X195734300Y-114198400D03*
X197559300Y-114198400D03*
D23*
X221488000Y-103362800D03*
X221488000Y-101462800D03*
D18*
X234640200Y-76809600D03*
D19*
X237180200Y-76809600D03*
D18*
X177008000Y-101396800D03*
D19*
X179548000Y-101396800D03*
X187168000Y-101396800D03*
X189708000Y-101396800D03*
X192248000Y-101396800D03*
X194788000Y-101396800D03*
D23*
X231800400Y-102956400D03*
X231800400Y-101056400D03*
D34*
X227457000Y-93637100D03*
X226187000Y-93637100D03*
X224917000Y-93637100D03*
X223647000Y-93637100D03*
X223647000Y-99098100D03*
X224917000Y-99098100D03*
X226187000Y-99098100D03*
X227457000Y-99098100D03*
D35*
X189760400Y-114198400D03*
X192560400Y-114198400D03*
D36*
X216763600Y-110390200D03*
X216763600Y-107440200D03*
D14*
X229412800Y-110488100D03*
X229412800Y-108663100D03*
X221691200Y-110538900D03*
X221691200Y-108713900D03*
D23*
X211175600Y-72222400D03*
X211175600Y-70322400D03*
D37*
X206349600Y-79046700D03*
X206349600Y-80871700D03*
D18*
X222212800Y-70764400D03*
D19*
X224752800Y-70764400D03*
X227292800Y-70764400D03*
X229832800Y-70764400D03*
D14*
X221996000Y-90574500D03*
X221996000Y-88749500D03*
D37*
X216611200Y-71426700D03*
X216611200Y-73251700D03*
D30*
X239585200Y-83667600D03*
D31*
X234885200Y-87067600D03*
X234885200Y-80067600D03*
D23*
X221640400Y-83144400D03*
X221640400Y-81244400D03*
D14*
X229666800Y-90523700D03*
X229666800Y-88698700D03*
D38*
X188815200Y-68732400D03*
X181415200Y-68732400D03*
D14*
X204216000Y-80871700D03*
X204216000Y-79046700D03*
D18*
X177008000Y-80111600D03*
D19*
X179548000Y-80111600D03*
X187168000Y-80111600D03*
X189708000Y-80111600D03*
X192248000Y-80111600D03*
X194788000Y-80111600D03*
D18*
X176530000Y-67152600D03*
D19*
X176530000Y-69692600D03*
D14*
X216611200Y-78382500D03*
X216611200Y-76557500D03*
D10*
X239418500Y-107797600D03*
X237593500Y-107797600D03*
D15*
X214122000Y-96774000D03*
X215947000Y-96774000D03*
D39*
X178645100Y-114046000D03*
D40*
X181145100Y-114046000D03*
X183645100Y-114046000D03*
D41*
X231749600Y-85054400D03*
X231749600Y-86954400D03*
D42*
X179019200Y-109591200D03*
X179019200Y-105191200D03*
D34*
X227660200Y-73926700D03*
X226390200Y-73926700D03*
X225120200Y-73926700D03*
X223850200Y-73926700D03*
X223850200Y-79387700D03*
X225120200Y-79387700D03*
X226390200Y-79387700D03*
X227660200Y-79387700D03*
D41*
X229666800Y-92318800D03*
X229666800Y-94218800D03*
D18*
X237241000Y-90525600D03*
D19*
X234701000Y-90525600D03*
D36*
X185674000Y-109374200D03*
X185674000Y-106424200D03*
D37*
X200761600Y-82094700D03*
X200761600Y-83919700D03*
D38*
X197705200Y-88493600D03*
X190305200Y-88493600D03*
D43*
X202057000Y-114706400D03*
D44*
X204597000Y-114706400D03*
X207137000Y-114706400D03*
X209677000Y-114706400D03*
X212217000Y-114706400D03*
X214757000Y-114706400D03*
X217297000Y-114706400D03*
X219837000Y-114706400D03*
X224917000Y-114706400D03*
X227457000Y-114706400D03*
X229997000Y-114706400D03*
X232537000Y-114706400D03*
X235077000Y-114706400D03*
X237617000Y-114706400D03*
X237617000Y-66446400D03*
X235077000Y-66446400D03*
X232537000Y-66446400D03*
X229997000Y-66446400D03*
X227457000Y-66446400D03*
X224917000Y-66446400D03*
X222377000Y-66446400D03*
X219837000Y-66446400D03*
X215777000Y-66446400D03*
X213237000Y-66446400D03*
X210697000Y-66446400D03*
X208157000Y-66446400D03*
X205617000Y-66446400D03*
X203077000Y-66446400D03*
X200537000Y-66446400D03*
X197997000Y-66446400D03*
X195457000Y-66446400D03*
X192917000Y-66446400D03*
M02*
