G04 #@! TF.GenerationSoftware,KiCad,Pcbnew,(6.0.4)*
G04 #@! TF.CreationDate,2023-10-19T14:50:22+10:00*
G04 #@! TF.ProjectId,OpenXstim,4f70656e-5873-4746-996d-2e6b69636164,rev?*
G04 #@! TF.SameCoordinates,Original*
G04 #@! TF.FileFunction,Legend,Top*
G04 #@! TF.FilePolarity,Positive*
%FSLAX46Y46*%
G04 Gerber Fmt 4.6, Leading zero omitted, Abs format (unit mm)*
G04 Created by KiCad (PCBNEW (6.0.4)) date 2023-10-19 14:50:22*
%MOMM*%
%LPD*%
G01*
G04 APERTURE LIST*
G04 Aperture macros list*
%AMRoundRect*
0 Rectangle with rounded corners*
0 $1 Rounding radius*
0 $2 $3 $4 $5 $6 $7 $8 $9 X,Y pos of 4 corners*
0 Add a 4 corners polygon primitive as box body*
4,1,4,$2,$3,$4,$5,$6,$7,$8,$9,$2,$3,0*
0 Add four circle primitives for the rounded corners*
1,1,$1+$1,$2,$3*
1,1,$1+$1,$4,$5*
1,1,$1+$1,$6,$7*
1,1,$1+$1,$8,$9*
0 Add four rect primitives between the rounded corners*
20,1,$1+$1,$2,$3,$4,$5,0*
20,1,$1+$1,$4,$5,$6,$7,0*
20,1,$1+$1,$6,$7,$8,$9,0*
20,1,$1+$1,$8,$9,$2,$3,0*%
G04 Aperture macros list end*
%ADD10C,0.150000*%
%ADD11C,0.120078*%
%ADD12C,0.120000*%
%ADD13C,0.152400*%
%ADD14C,0.050800*%
%ADD15C,0.127000*%
%ADD16C,0.304800*%
%ADD17C,0.400000*%
%ADD18C,0.200000*%
%ADD19RoundRect,0.250000X0.262500X0.450000X-0.262500X0.450000X-0.262500X-0.450000X0.262500X-0.450000X0*%
%ADD20RoundRect,0.250000X1.250000X0.550000X-1.250000X0.550000X-1.250000X-0.550000X1.250000X-0.550000X0*%
%ADD21R,0.355600X1.473200*%
%ADD22R,5.029200X3.251200*%
%ADD23RoundRect,0.250000X0.450000X-0.262500X0.450000X0.262500X-0.450000X0.262500X-0.450000X-0.262500X0*%
%ADD24RoundRect,0.250000X-0.262500X-0.450000X0.262500X-0.450000X0.262500X0.450000X-0.262500X0.450000X0*%
%ADD25RoundRect,0.250000X-0.250000X-0.475000X0.250000X-0.475000X0.250000X0.475000X-0.250000X0.475000X0*%
%ADD26RoundRect,0.250000X-0.550000X1.250000X-0.550000X-1.250000X0.550000X-1.250000X0.550000X1.250000X0*%
%ADD27R,1.700000X1.700000*%
%ADD28O,1.700000X1.700000*%
%ADD29RoundRect,0.150000X-0.150000X0.825000X-0.150000X-0.825000X0.150000X-0.825000X0.150000X0.825000X0*%
%ADD30R,2.000000X1.500000*%
%ADD31R,2.000000X3.800000*%
%ADD32RoundRect,0.250000X0.475000X-0.250000X0.475000X0.250000X-0.475000X0.250000X-0.475000X-0.250000X0*%
%ADD33RoundRect,0.250000X0.250000X0.475000X-0.250000X0.475000X-0.250000X-0.475000X0.250000X-0.475000X0*%
%ADD34R,0.600000X1.800000*%
%ADD35R,6.000000X2.400000*%
%ADD36C,2.600000*%
%ADD37C,1.800000*%
%ADD38R,1.800000X1.800000*%
%ADD39O,1.508000X3.016000*%
%ADD40O,3.016000X1.508000*%
%ADD41R,2.000000X2.000000*%
%ADD42C,2.000000*%
%ADD43R,0.482600X1.447800*%
%ADD44RoundRect,0.250000X-0.375000X-0.625000X0.375000X-0.625000X0.375000X0.625000X-0.375000X0.625000X0*%
%ADD45RoundRect,0.250000X0.650000X-0.325000X0.650000X0.325000X-0.650000X0.325000X-0.650000X-0.325000X0*%
%ADD46RoundRect,0.250000X-0.450000X0.262500X-0.450000X-0.262500X0.450000X-0.262500X0.450000X0.262500X0*%
%ADD47RoundRect,0.250000X1.950000X1.000000X-1.950000X1.000000X-1.950000X-1.000000X1.950000X-1.000000X0*%
%ADD48R,1.408000X1.408000*%
%ADD49C,1.408000*%
%ADD50RoundRect,0.250000X0.550000X-1.250000X0.550000X1.250000X-0.550000X1.250000X-0.550000X-1.250000X0*%
%ADD51RoundRect,0.250000X-0.475000X0.250000X-0.475000X-0.250000X0.475000X-0.250000X0.475000X0.250000X0*%
%ADD52R,1.600000X1.600000*%
%ADD53O,1.600000X1.600000*%
G04 APERTURE END LIST*
D10*
X234256342Y-73858380D02*
X233923009Y-73382190D01*
X233684914Y-73858380D02*
X233684914Y-72858380D01*
X234065866Y-72858380D01*
X234161104Y-72906000D01*
X234208723Y-72953619D01*
X234256342Y-73048857D01*
X234256342Y-73191714D01*
X234208723Y-73286952D01*
X234161104Y-73334571D01*
X234065866Y-73382190D01*
X233684914Y-73382190D01*
X235208723Y-73858380D02*
X234637295Y-73858380D01*
X234923009Y-73858380D02*
X234923009Y-72858380D01*
X234827771Y-73001238D01*
X234732533Y-73096476D01*
X234637295Y-73144095D01*
X236065866Y-72858380D02*
X235875390Y-72858380D01*
X235780152Y-72906000D01*
X235732533Y-72953619D01*
X235637295Y-73096476D01*
X235589676Y-73286952D01*
X235589676Y-73667904D01*
X235637295Y-73763142D01*
X235684914Y-73810761D01*
X235780152Y-73858380D01*
X235970628Y-73858380D01*
X236065866Y-73810761D01*
X236113485Y-73763142D01*
X236161104Y-73667904D01*
X236161104Y-73429809D01*
X236113485Y-73334571D01*
X236065866Y-73286952D01*
X235970628Y-73239333D01*
X235780152Y-73239333D01*
X235684914Y-73286952D01*
X235637295Y-73334571D01*
X235589676Y-73429809D01*
X215276133Y-99264742D02*
X215228514Y-99312361D01*
X215085657Y-99359980D01*
X214990419Y-99359980D01*
X214847561Y-99312361D01*
X214752323Y-99217123D01*
X214704704Y-99121885D01*
X214657085Y-98931409D01*
X214657085Y-98788552D01*
X214704704Y-98598076D01*
X214752323Y-98502838D01*
X214847561Y-98407600D01*
X214990419Y-98359980D01*
X215085657Y-98359980D01*
X215228514Y-98407600D01*
X215276133Y-98455219D01*
X215657085Y-98455219D02*
X215704704Y-98407600D01*
X215799942Y-98359980D01*
X216038038Y-98359980D01*
X216133276Y-98407600D01*
X216180895Y-98455219D01*
X216228514Y-98550457D01*
X216228514Y-98645695D01*
X216180895Y-98788552D01*
X215609466Y-99359980D01*
X216228514Y-99359980D01*
X209092895Y-68641980D02*
X209092895Y-69451504D01*
X209140514Y-69546742D01*
X209188133Y-69594361D01*
X209283371Y-69641980D01*
X209473847Y-69641980D01*
X209569085Y-69594361D01*
X209616704Y-69546742D01*
X209664323Y-69451504D01*
X209664323Y-68641980D01*
X210092895Y-68737219D02*
X210140514Y-68689600D01*
X210235752Y-68641980D01*
X210473847Y-68641980D01*
X210569085Y-68689600D01*
X210616704Y-68737219D01*
X210664323Y-68832457D01*
X210664323Y-68927695D01*
X210616704Y-69070552D01*
X210045276Y-69641980D01*
X210664323Y-69641980D01*
X230119180Y-98128057D02*
X229642990Y-98461390D01*
X230119180Y-98699485D02*
X229119180Y-98699485D01*
X229119180Y-98318533D01*
X229166800Y-98223295D01*
X229214419Y-98175676D01*
X229309657Y-98128057D01*
X229452514Y-98128057D01*
X229547752Y-98175676D01*
X229595371Y-98223295D01*
X229642990Y-98318533D01*
X229642990Y-98699485D01*
X230119180Y-97175676D02*
X230119180Y-97747104D01*
X230119180Y-97461390D02*
X229119180Y-97461390D01*
X229262038Y-97556628D01*
X229357276Y-97651866D01*
X229404895Y-97747104D01*
X229119180Y-96270914D02*
X229119180Y-96747104D01*
X229595371Y-96794723D01*
X229547752Y-96747104D01*
X229500133Y-96651866D01*
X229500133Y-96413771D01*
X229547752Y-96318533D01*
X229595371Y-96270914D01*
X229690609Y-96223295D01*
X229928704Y-96223295D01*
X230023942Y-96270914D01*
X230071561Y-96318533D01*
X230119180Y-96413771D01*
X230119180Y-96651866D01*
X230071561Y-96747104D01*
X230023942Y-96794723D01*
X194073542Y-70023980D02*
X193740209Y-69547790D01*
X193502114Y-70023980D02*
X193502114Y-69023980D01*
X193883066Y-69023980D01*
X193978304Y-69071600D01*
X194025923Y-69119219D01*
X194073542Y-69214457D01*
X194073542Y-69357314D01*
X194025923Y-69452552D01*
X193978304Y-69500171D01*
X193883066Y-69547790D01*
X193502114Y-69547790D01*
X195025923Y-70023980D02*
X194454495Y-70023980D01*
X194740209Y-70023980D02*
X194740209Y-69023980D01*
X194644971Y-69166838D01*
X194549733Y-69262076D01*
X194454495Y-69309695D01*
X195502114Y-70023980D02*
X195692590Y-70023980D01*
X195787828Y-69976361D01*
X195835447Y-69928742D01*
X195930685Y-69785885D01*
X195978304Y-69595409D01*
X195978304Y-69214457D01*
X195930685Y-69119219D01*
X195883066Y-69071600D01*
X195787828Y-69023980D01*
X195597352Y-69023980D01*
X195502114Y-69071600D01*
X195454495Y-69119219D01*
X195406876Y-69214457D01*
X195406876Y-69452552D01*
X195454495Y-69547790D01*
X195502114Y-69595409D01*
X195597352Y-69643028D01*
X195787828Y-69643028D01*
X195883066Y-69595409D01*
X195930685Y-69547790D01*
X195978304Y-69452552D01*
X232970342Y-112485466D02*
X233017961Y-112533085D01*
X233065580Y-112675942D01*
X233065580Y-112771180D01*
X233017961Y-112914038D01*
X232922723Y-113009276D01*
X232827485Y-113056895D01*
X232637009Y-113104514D01*
X232494152Y-113104514D01*
X232303676Y-113056895D01*
X232208438Y-113009276D01*
X232113200Y-112914038D01*
X232065580Y-112771180D01*
X232065580Y-112675942D01*
X232113200Y-112533085D01*
X232160819Y-112485466D01*
X232065580Y-111628323D02*
X232065580Y-111818800D01*
X232113200Y-111914038D01*
X232160819Y-111961657D01*
X232303676Y-112056895D01*
X232494152Y-112104514D01*
X232875104Y-112104514D01*
X232970342Y-112056895D01*
X233017961Y-112009276D01*
X233065580Y-111914038D01*
X233065580Y-111723561D01*
X233017961Y-111628323D01*
X232970342Y-111580704D01*
X232875104Y-111533085D01*
X232637009Y-111533085D01*
X232541771Y-111580704D01*
X232494152Y-111628323D01*
X232446533Y-111723561D01*
X232446533Y-111914038D01*
X232494152Y-112009276D01*
X232541771Y-112056895D01*
X232637009Y-112104514D01*
X229582742Y-78887580D02*
X229249409Y-78411390D01*
X229011314Y-78887580D02*
X229011314Y-77887580D01*
X229392266Y-77887580D01*
X229487504Y-77935200D01*
X229535123Y-77982819D01*
X229582742Y-78078057D01*
X229582742Y-78220914D01*
X229535123Y-78316152D01*
X229487504Y-78363771D01*
X229392266Y-78411390D01*
X229011314Y-78411390D01*
X230535123Y-78887580D02*
X229963695Y-78887580D01*
X230249409Y-78887580D02*
X230249409Y-77887580D01*
X230154171Y-78030438D01*
X230058933Y-78125676D01*
X229963695Y-78173295D01*
X230916076Y-77982819D02*
X230963695Y-77935200D01*
X231058933Y-77887580D01*
X231297028Y-77887580D01*
X231392266Y-77935200D01*
X231439885Y-77982819D01*
X231487504Y-78078057D01*
X231487504Y-78173295D01*
X231439885Y-78316152D01*
X230868457Y-78887580D01*
X231487504Y-78887580D01*
X187539333Y-85135980D02*
X187206000Y-84659790D01*
X186967904Y-85135980D02*
X186967904Y-84135980D01*
X187348857Y-84135980D01*
X187444095Y-84183600D01*
X187491714Y-84231219D01*
X187539333Y-84326457D01*
X187539333Y-84469314D01*
X187491714Y-84564552D01*
X187444095Y-84612171D01*
X187348857Y-84659790D01*
X186967904Y-84659790D01*
X187920285Y-84231219D02*
X187967904Y-84183600D01*
X188063142Y-84135980D01*
X188301238Y-84135980D01*
X188396476Y-84183600D01*
X188444095Y-84231219D01*
X188491714Y-84326457D01*
X188491714Y-84421695D01*
X188444095Y-84564552D01*
X187872666Y-85135980D01*
X188491714Y-85135980D01*
X202337942Y-105881466D02*
X202385561Y-105929085D01*
X202433180Y-106071942D01*
X202433180Y-106167180D01*
X202385561Y-106310038D01*
X202290323Y-106405276D01*
X202195085Y-106452895D01*
X202004609Y-106500514D01*
X201861752Y-106500514D01*
X201671276Y-106452895D01*
X201576038Y-106405276D01*
X201480800Y-106310038D01*
X201433180Y-106167180D01*
X201433180Y-106071942D01*
X201480800Y-105929085D01*
X201528419Y-105881466D01*
X201433180Y-105548133D02*
X201433180Y-104929085D01*
X201814133Y-105262419D01*
X201814133Y-105119561D01*
X201861752Y-105024323D01*
X201909371Y-104976704D01*
X202004609Y-104929085D01*
X202242704Y-104929085D01*
X202337942Y-104976704D01*
X202385561Y-105024323D01*
X202433180Y-105119561D01*
X202433180Y-105405276D01*
X202385561Y-105500514D01*
X202337942Y-105548133D01*
X239023380Y-104625733D02*
X239737666Y-104625733D01*
X239880523Y-104673352D01*
X239975761Y-104768590D01*
X240023380Y-104911447D01*
X240023380Y-105006685D01*
X240023380Y-103625733D02*
X240023380Y-104197161D01*
X240023380Y-103911447D02*
X239023380Y-103911447D01*
X239166238Y-104006685D01*
X239261476Y-104101923D01*
X239309095Y-104197161D01*
X215250780Y-106375104D02*
X216060304Y-106375104D01*
X216155542Y-106327485D01*
X216203161Y-106279866D01*
X216250780Y-106184628D01*
X216250780Y-105994152D01*
X216203161Y-105898914D01*
X216155542Y-105851295D01*
X216060304Y-105803676D01*
X215250780Y-105803676D01*
X216250780Y-104803676D02*
X216250780Y-105375104D01*
X216250780Y-105089390D02*
X215250780Y-105089390D01*
X215393638Y-105184628D01*
X215488876Y-105279866D01*
X215536495Y-105375104D01*
X186994895Y-103795580D02*
X186994895Y-104605104D01*
X187042514Y-104700342D01*
X187090133Y-104747961D01*
X187185371Y-104795580D01*
X187375847Y-104795580D01*
X187471085Y-104747961D01*
X187518704Y-104700342D01*
X187566323Y-104605104D01*
X187566323Y-103795580D01*
X187947276Y-103795580D02*
X188566323Y-103795580D01*
X188232990Y-104176533D01*
X188375847Y-104176533D01*
X188471085Y-104224152D01*
X188518704Y-104271771D01*
X188566323Y-104367009D01*
X188566323Y-104605104D01*
X188518704Y-104700342D01*
X188471085Y-104747961D01*
X188375847Y-104795580D01*
X188090133Y-104795580D01*
X187994895Y-104747961D01*
X187947276Y-104700342D01*
X210481942Y-79859142D02*
X210434323Y-79906761D01*
X210291466Y-79954380D01*
X210196228Y-79954380D01*
X210053371Y-79906761D01*
X209958133Y-79811523D01*
X209910514Y-79716285D01*
X209862895Y-79525809D01*
X209862895Y-79382952D01*
X209910514Y-79192476D01*
X209958133Y-79097238D01*
X210053371Y-79002000D01*
X210196228Y-78954380D01*
X210291466Y-78954380D01*
X210434323Y-79002000D01*
X210481942Y-79049619D01*
X211434323Y-79954380D02*
X210862895Y-79954380D01*
X211148609Y-79954380D02*
X211148609Y-78954380D01*
X211053371Y-79097238D01*
X210958133Y-79192476D01*
X210862895Y-79240095D01*
X211815276Y-79049619D02*
X211862895Y-79002000D01*
X211958133Y-78954380D01*
X212196228Y-78954380D01*
X212291466Y-79002000D01*
X212339085Y-79049619D01*
X212386704Y-79144857D01*
X212386704Y-79240095D01*
X212339085Y-79382952D01*
X211767657Y-79954380D01*
X212386704Y-79954380D01*
X199001142Y-77369942D02*
X198953523Y-77417561D01*
X198810666Y-77465180D01*
X198715428Y-77465180D01*
X198572571Y-77417561D01*
X198477333Y-77322323D01*
X198429714Y-77227085D01*
X198382095Y-77036609D01*
X198382095Y-76893752D01*
X198429714Y-76703276D01*
X198477333Y-76608038D01*
X198572571Y-76512800D01*
X198715428Y-76465180D01*
X198810666Y-76465180D01*
X198953523Y-76512800D01*
X199001142Y-76560419D01*
X199953523Y-77465180D02*
X199382095Y-77465180D01*
X199667809Y-77465180D02*
X199667809Y-76465180D01*
X199572571Y-76608038D01*
X199477333Y-76703276D01*
X199382095Y-76750895D01*
X200572571Y-76465180D02*
X200667809Y-76465180D01*
X200763047Y-76512800D01*
X200810666Y-76560419D01*
X200858285Y-76655657D01*
X200905904Y-76846133D01*
X200905904Y-77084228D01*
X200858285Y-77274704D01*
X200810666Y-77369942D01*
X200763047Y-77417561D01*
X200667809Y-77465180D01*
X200572571Y-77465180D01*
X200477333Y-77417561D01*
X200429714Y-77369942D01*
X200382095Y-77274704D01*
X200334476Y-77084228D01*
X200334476Y-76846133D01*
X200382095Y-76655657D01*
X200429714Y-76560419D01*
X200477333Y-76512800D01*
X200572571Y-76465180D01*
D11*
X228334324Y-83478483D02*
X228334324Y-82998172D01*
X228837507Y-83432739D02*
X228814635Y-83455611D01*
X228746020Y-83478483D01*
X228700276Y-83478483D01*
X228631660Y-83455611D01*
X228585916Y-83409867D01*
X228563044Y-83364123D01*
X228540172Y-83272635D01*
X228540172Y-83204020D01*
X228563044Y-83112532D01*
X228585916Y-83066788D01*
X228631660Y-83021044D01*
X228700276Y-82998172D01*
X228746020Y-82998172D01*
X228814635Y-83021044D01*
X228837507Y-83043916D01*
X229294946Y-83478483D02*
X229020483Y-83478483D01*
X229157715Y-83478483D02*
X229157715Y-82998172D01*
X229111971Y-83066788D01*
X229066227Y-83112532D01*
X229020483Y-83135404D01*
D10*
X204202521Y-83005848D02*
X204345479Y-83053501D01*
X204583743Y-83053501D01*
X204679049Y-83005848D01*
X204726702Y-82958196D01*
X204774355Y-82862890D01*
X204774355Y-82767584D01*
X204726702Y-82672279D01*
X204679049Y-82624626D01*
X204583743Y-82576973D01*
X204393132Y-82529320D01*
X204297826Y-82481667D01*
X204250174Y-82434015D01*
X204202521Y-82338709D01*
X204202521Y-82243403D01*
X204250174Y-82148098D01*
X204297826Y-82100445D01*
X204393132Y-82052792D01*
X204631396Y-82052792D01*
X204774355Y-82100445D01*
X205107924Y-82052792D02*
X205346188Y-83053501D01*
X205536800Y-82338709D01*
X205727411Y-83053501D01*
X205965675Y-82052792D01*
X206871078Y-83053501D02*
X206299244Y-83053501D01*
X206585161Y-83053501D02*
X206585161Y-82052792D01*
X206489856Y-82195751D01*
X206394550Y-82291056D01*
X206299244Y-82338709D01*
D11*
X227978724Y-103595283D02*
X227978724Y-103114972D01*
X228481907Y-103549539D02*
X228459035Y-103572411D01*
X228390420Y-103595283D01*
X228344676Y-103595283D01*
X228276060Y-103572411D01*
X228230316Y-103526667D01*
X228207444Y-103480923D01*
X228184572Y-103389435D01*
X228184572Y-103320820D01*
X228207444Y-103229332D01*
X228230316Y-103183588D01*
X228276060Y-103137844D01*
X228344676Y-103114972D01*
X228390420Y-103114972D01*
X228459035Y-103137844D01*
X228481907Y-103160716D01*
X228664883Y-103160716D02*
X228687755Y-103137844D01*
X228733499Y-103114972D01*
X228847859Y-103114972D01*
X228893603Y-103137844D01*
X228916475Y-103160716D01*
X228939346Y-103206460D01*
X228939346Y-103252204D01*
X228916475Y-103320820D01*
X228642011Y-103595283D01*
X228939346Y-103595283D01*
D10*
X232014772Y-98021738D02*
X232729069Y-98021738D01*
X232871928Y-98069358D01*
X232967168Y-98164598D01*
X233014788Y-98307457D01*
X233014788Y-98402697D01*
X232014772Y-97640780D02*
X232014772Y-97021722D01*
X232395730Y-97355061D01*
X232395730Y-97212201D01*
X232443350Y-97116962D01*
X232490970Y-97069342D01*
X232586209Y-97021722D01*
X232824308Y-97021722D01*
X232919548Y-97069342D01*
X232967168Y-97116962D01*
X233014788Y-97212201D01*
X233014788Y-97497920D01*
X232967168Y-97593160D01*
X232919548Y-97640780D01*
X185707447Y-93857771D02*
X185850304Y-93905390D01*
X185897923Y-93953009D01*
X185945542Y-94048247D01*
X185945542Y-94191104D01*
X185897923Y-94286342D01*
X185850304Y-94333961D01*
X185755066Y-94381580D01*
X185374114Y-94381580D01*
X185374114Y-93381580D01*
X185707447Y-93381580D01*
X185802685Y-93429200D01*
X185850304Y-93476819D01*
X185897923Y-93572057D01*
X185897923Y-93667295D01*
X185850304Y-93762533D01*
X185802685Y-93810152D01*
X185707447Y-93857771D01*
X185374114Y-93857771D01*
X186278876Y-93381580D02*
X186945542Y-93381580D01*
X186278876Y-94381580D01*
X186945542Y-94381580D01*
X187850304Y-94381580D02*
X187278876Y-94381580D01*
X187564590Y-94381580D02*
X187564590Y-93381580D01*
X187469352Y-93524438D01*
X187374114Y-93619676D01*
X187278876Y-93667295D01*
X183561028Y-84861352D02*
X183561028Y-84099447D01*
X183941980Y-84480400D02*
X183180076Y-84480400D01*
X214818933Y-80970380D02*
X214485600Y-80494190D01*
X214247504Y-80970380D02*
X214247504Y-79970380D01*
X214628457Y-79970380D01*
X214723695Y-80018000D01*
X214771314Y-80065619D01*
X214818933Y-80160857D01*
X214818933Y-80303714D01*
X214771314Y-80398952D01*
X214723695Y-80446571D01*
X214628457Y-80494190D01*
X214247504Y-80494190D01*
X215676076Y-80303714D02*
X215676076Y-80970380D01*
X215437980Y-79922761D02*
X215199885Y-80637047D01*
X215818933Y-80637047D01*
X196480133Y-112872780D02*
X196146800Y-112396590D01*
X195908704Y-112872780D02*
X195908704Y-111872780D01*
X196289657Y-111872780D01*
X196384895Y-111920400D01*
X196432514Y-111968019D01*
X196480133Y-112063257D01*
X196480133Y-112206114D01*
X196432514Y-112301352D01*
X196384895Y-112348971D01*
X196289657Y-112396590D01*
X195908704Y-112396590D01*
X197099180Y-111872780D02*
X197194419Y-111872780D01*
X197289657Y-111920400D01*
X197337276Y-111968019D01*
X197384895Y-112063257D01*
X197432514Y-112253733D01*
X197432514Y-112491828D01*
X197384895Y-112682304D01*
X197337276Y-112777542D01*
X197289657Y-112825161D01*
X197194419Y-112872780D01*
X197099180Y-112872780D01*
X197003942Y-112825161D01*
X196956323Y-112777542D01*
X196908704Y-112682304D01*
X196861085Y-112491828D01*
X196861085Y-112253733D01*
X196908704Y-112063257D01*
X196956323Y-111968019D01*
X197003942Y-111920400D01*
X197099180Y-111872780D01*
X221845142Y-105525866D02*
X221892761Y-105573485D01*
X221940380Y-105716342D01*
X221940380Y-105811580D01*
X221892761Y-105954438D01*
X221797523Y-106049676D01*
X221702285Y-106097295D01*
X221511809Y-106144914D01*
X221368952Y-106144914D01*
X221178476Y-106097295D01*
X221083238Y-106049676D01*
X220988000Y-105954438D01*
X220940380Y-105811580D01*
X220940380Y-105716342D01*
X220988000Y-105573485D01*
X221035619Y-105525866D01*
X220940380Y-105192533D02*
X220940380Y-104525866D01*
X221940380Y-104954438D01*
X238821980Y-77041333D02*
X239536266Y-77041333D01*
X239679123Y-77088952D01*
X239774361Y-77184190D01*
X239821980Y-77327047D01*
X239821980Y-77422285D01*
X239155314Y-76136571D02*
X239821980Y-76136571D01*
X238774361Y-76374666D02*
X239488647Y-76612761D01*
X239488647Y-75993714D01*
X174498095Y-93762580D02*
X174498095Y-94572104D01*
X174545714Y-94667342D01*
X174593333Y-94714961D01*
X174688571Y-94762580D01*
X174879047Y-94762580D01*
X174974285Y-94714961D01*
X175021904Y-94667342D01*
X175069523Y-94572104D01*
X175069523Y-93762580D01*
X175688571Y-94191152D02*
X175593333Y-94143533D01*
X175545714Y-94095914D01*
X175498095Y-94000676D01*
X175498095Y-93953057D01*
X175545714Y-93857819D01*
X175593333Y-93810200D01*
X175688571Y-93762580D01*
X175879047Y-93762580D01*
X175974285Y-93810200D01*
X176021904Y-93857819D01*
X176069523Y-93953057D01*
X176069523Y-94000676D01*
X176021904Y-94095914D01*
X175974285Y-94143533D01*
X175879047Y-94191152D01*
X175688571Y-94191152D01*
X175593333Y-94238771D01*
X175545714Y-94286390D01*
X175498095Y-94381628D01*
X175498095Y-94572104D01*
X175545714Y-94667342D01*
X175593333Y-94714961D01*
X175688571Y-94762580D01*
X175879047Y-94762580D01*
X175974285Y-94714961D01*
X176021904Y-94667342D01*
X176069523Y-94572104D01*
X176069523Y-94381628D01*
X176021904Y-94286390D01*
X175974285Y-94238771D01*
X175879047Y-94191152D01*
X227569733Y-92552780D02*
X227236400Y-92076590D01*
X226998304Y-92552780D02*
X226998304Y-91552780D01*
X227379257Y-91552780D01*
X227474495Y-91600400D01*
X227522114Y-91648019D01*
X227569733Y-91743257D01*
X227569733Y-91886114D01*
X227522114Y-91981352D01*
X227474495Y-92028971D01*
X227379257Y-92076590D01*
X226998304Y-92076590D01*
X228141161Y-91981352D02*
X228045923Y-91933733D01*
X227998304Y-91886114D01*
X227950685Y-91790876D01*
X227950685Y-91743257D01*
X227998304Y-91648019D01*
X228045923Y-91600400D01*
X228141161Y-91552780D01*
X228331638Y-91552780D01*
X228426876Y-91600400D01*
X228474495Y-91648019D01*
X228522114Y-91743257D01*
X228522114Y-91790876D01*
X228474495Y-91886114D01*
X228426876Y-91933733D01*
X228331638Y-91981352D01*
X228141161Y-91981352D01*
X228045923Y-92028971D01*
X227998304Y-92076590D01*
X227950685Y-92171828D01*
X227950685Y-92362304D01*
X227998304Y-92457542D01*
X228045923Y-92505161D01*
X228141161Y-92552780D01*
X228331638Y-92552780D01*
X228426876Y-92505161D01*
X228474495Y-92457542D01*
X228522114Y-92362304D01*
X228522114Y-92171828D01*
X228474495Y-92076590D01*
X228426876Y-92028971D01*
X228331638Y-91981352D01*
X190422304Y-112771180D02*
X190422304Y-111771180D01*
X190660400Y-111771180D01*
X190803257Y-111818800D01*
X190898495Y-111914038D01*
X190946114Y-112009276D01*
X190993733Y-112199752D01*
X190993733Y-112342609D01*
X190946114Y-112533085D01*
X190898495Y-112628323D01*
X190803257Y-112723561D01*
X190660400Y-112771180D01*
X190422304Y-112771180D01*
X191612780Y-111771180D02*
X191708019Y-111771180D01*
X191803257Y-111818800D01*
X191850876Y-111866419D01*
X191898495Y-111961657D01*
X191946114Y-112152133D01*
X191946114Y-112390228D01*
X191898495Y-112580704D01*
X191850876Y-112675942D01*
X191803257Y-112723561D01*
X191708019Y-112771180D01*
X191612780Y-112771180D01*
X191517542Y-112723561D01*
X191469923Y-112675942D01*
X191422304Y-112580704D01*
X191374685Y-112390228D01*
X191374685Y-112152133D01*
X191422304Y-111961657D01*
X191469923Y-111866419D01*
X191517542Y-111818800D01*
X191612780Y-111771180D01*
X218847942Y-109081866D02*
X218895561Y-109129485D01*
X218943180Y-109272342D01*
X218943180Y-109367580D01*
X218895561Y-109510438D01*
X218800323Y-109605676D01*
X218705085Y-109653295D01*
X218514609Y-109700914D01*
X218371752Y-109700914D01*
X218181276Y-109653295D01*
X218086038Y-109605676D01*
X217990800Y-109510438D01*
X217943180Y-109367580D01*
X217943180Y-109272342D01*
X217990800Y-109129485D01*
X218038419Y-109081866D01*
X218943180Y-108129485D02*
X218943180Y-108700914D01*
X218943180Y-108415200D02*
X217943180Y-108415200D01*
X218086038Y-108510438D01*
X218181276Y-108605676D01*
X218228895Y-108700914D01*
X231592380Y-110320057D02*
X231116190Y-110653390D01*
X231592380Y-110891485D02*
X230592380Y-110891485D01*
X230592380Y-110510533D01*
X230640000Y-110415295D01*
X230687619Y-110367676D01*
X230782857Y-110320057D01*
X230925714Y-110320057D01*
X231020952Y-110367676D01*
X231068571Y-110415295D01*
X231116190Y-110510533D01*
X231116190Y-110891485D01*
X231592380Y-109367676D02*
X231592380Y-109939104D01*
X231592380Y-109653390D02*
X230592380Y-109653390D01*
X230735238Y-109748628D01*
X230830476Y-109843866D01*
X230878095Y-109939104D01*
X230592380Y-109034342D02*
X230592380Y-108415295D01*
X230973333Y-108748628D01*
X230973333Y-108605771D01*
X231020952Y-108510533D01*
X231068571Y-108462914D01*
X231163809Y-108415295D01*
X231401904Y-108415295D01*
X231497142Y-108462914D01*
X231544761Y-108510533D01*
X231592380Y-108605771D01*
X231592380Y-108891485D01*
X231544761Y-108986723D01*
X231497142Y-109034342D01*
X222194380Y-113164857D02*
X221718190Y-113498190D01*
X222194380Y-113736285D02*
X221194380Y-113736285D01*
X221194380Y-113355333D01*
X221242000Y-113260095D01*
X221289619Y-113212476D01*
X221384857Y-113164857D01*
X221527714Y-113164857D01*
X221622952Y-113212476D01*
X221670571Y-113260095D01*
X221718190Y-113355333D01*
X221718190Y-113736285D01*
X222194380Y-112212476D02*
X222194380Y-112783904D01*
X222194380Y-112498190D02*
X221194380Y-112498190D01*
X221337238Y-112593428D01*
X221432476Y-112688666D01*
X221480095Y-112783904D01*
X222194380Y-111260095D02*
X222194380Y-111831523D01*
X222194380Y-111545809D02*
X221194380Y-111545809D01*
X221337238Y-111641047D01*
X221432476Y-111736285D01*
X221480095Y-111831523D01*
X210685142Y-74118742D02*
X210637523Y-74166361D01*
X210494666Y-74213980D01*
X210399428Y-74213980D01*
X210256571Y-74166361D01*
X210161333Y-74071123D01*
X210113714Y-73975885D01*
X210066095Y-73785409D01*
X210066095Y-73642552D01*
X210113714Y-73452076D01*
X210161333Y-73356838D01*
X210256571Y-73261600D01*
X210399428Y-73213980D01*
X210494666Y-73213980D01*
X210637523Y-73261600D01*
X210685142Y-73309219D01*
X211637523Y-74213980D02*
X211066095Y-74213980D01*
X211351809Y-74213980D02*
X211351809Y-73213980D01*
X211256571Y-73356838D01*
X211161333Y-73452076D01*
X211066095Y-73499695D01*
X212589904Y-74213980D02*
X212018476Y-74213980D01*
X212304190Y-74213980D02*
X212304190Y-73213980D01*
X212208952Y-73356838D01*
X212113714Y-73452076D01*
X212018476Y-73499695D01*
X208681580Y-80652857D02*
X208205390Y-80986190D01*
X208681580Y-81224285D02*
X207681580Y-81224285D01*
X207681580Y-80843333D01*
X207729200Y-80748095D01*
X207776819Y-80700476D01*
X207872057Y-80652857D01*
X208014914Y-80652857D01*
X208110152Y-80700476D01*
X208157771Y-80748095D01*
X208205390Y-80843333D01*
X208205390Y-81224285D01*
X208681580Y-79700476D02*
X208681580Y-80271904D01*
X208681580Y-79986190D02*
X207681580Y-79986190D01*
X207824438Y-80081428D01*
X207919676Y-80176666D01*
X207967295Y-80271904D01*
X207681580Y-79367142D02*
X207681580Y-78700476D01*
X208681580Y-79129047D01*
X221081695Y-67676780D02*
X221081695Y-68486304D01*
X221129314Y-68581542D01*
X221176933Y-68629161D01*
X221272171Y-68676780D01*
X221462647Y-68676780D01*
X221557885Y-68629161D01*
X221605504Y-68581542D01*
X221653123Y-68486304D01*
X221653123Y-67676780D01*
X222605504Y-67676780D02*
X222129314Y-67676780D01*
X222081695Y-68152971D01*
X222129314Y-68105352D01*
X222224552Y-68057733D01*
X222462647Y-68057733D01*
X222557885Y-68105352D01*
X222605504Y-68152971D01*
X222653123Y-68248209D01*
X222653123Y-68486304D01*
X222605504Y-68581542D01*
X222557885Y-68629161D01*
X222462647Y-68676780D01*
X222224552Y-68676780D01*
X222129314Y-68629161D01*
X222081695Y-68581542D01*
X222295980Y-92470266D02*
X221819790Y-92803600D01*
X222295980Y-93041695D02*
X221295980Y-93041695D01*
X221295980Y-92660742D01*
X221343600Y-92565504D01*
X221391219Y-92517885D01*
X221486457Y-92470266D01*
X221629314Y-92470266D01*
X221724552Y-92517885D01*
X221772171Y-92565504D01*
X221819790Y-92660742D01*
X221819790Y-93041695D01*
X222295980Y-91994076D02*
X222295980Y-91803600D01*
X222248361Y-91708361D01*
X222200742Y-91660742D01*
X222057885Y-91565504D01*
X221867409Y-91517885D01*
X221486457Y-91517885D01*
X221391219Y-91565504D01*
X221343600Y-91613123D01*
X221295980Y-91708361D01*
X221295980Y-91898838D01*
X221343600Y-91994076D01*
X221391219Y-92041695D01*
X221486457Y-92089314D01*
X221724552Y-92089314D01*
X221819790Y-92041695D01*
X221867409Y-91994076D01*
X221915028Y-91898838D01*
X221915028Y-91708361D01*
X221867409Y-91613123D01*
X221819790Y-91565504D01*
X221724552Y-91517885D01*
X218713580Y-72505866D02*
X218237390Y-72839200D01*
X218713580Y-73077295D02*
X217713580Y-73077295D01*
X217713580Y-72696342D01*
X217761200Y-72601104D01*
X217808819Y-72553485D01*
X217904057Y-72505866D01*
X218046914Y-72505866D01*
X218142152Y-72553485D01*
X218189771Y-72601104D01*
X218237390Y-72696342D01*
X218237390Y-73077295D01*
X217713580Y-72172533D02*
X217713580Y-71505866D01*
X218713580Y-71934438D01*
X232014772Y-84204138D02*
X232729069Y-84204138D01*
X232871928Y-84251758D01*
X232967168Y-84346998D01*
X233014788Y-84489857D01*
X233014788Y-84585097D01*
X232110011Y-83775560D02*
X232062392Y-83727940D01*
X232014772Y-83632700D01*
X232014772Y-83394601D01*
X232062392Y-83299362D01*
X232110011Y-83251742D01*
X232205251Y-83204122D01*
X232300491Y-83204122D01*
X232443350Y-83251742D01*
X233014788Y-83823180D01*
X233014788Y-83204122D01*
X221946742Y-86088457D02*
X221994361Y-86136076D01*
X222041980Y-86278933D01*
X222041980Y-86374171D01*
X221994361Y-86517028D01*
X221899123Y-86612266D01*
X221803885Y-86659885D01*
X221613409Y-86707504D01*
X221470552Y-86707504D01*
X221280076Y-86659885D01*
X221184838Y-86612266D01*
X221089600Y-86517028D01*
X221041980Y-86374171D01*
X221041980Y-86278933D01*
X221089600Y-86136076D01*
X221137219Y-86088457D01*
X222041980Y-85136076D02*
X222041980Y-85707504D01*
X222041980Y-85421790D02*
X221041980Y-85421790D01*
X221184838Y-85517028D01*
X221280076Y-85612266D01*
X221327695Y-85707504D01*
X221375314Y-84278933D02*
X222041980Y-84278933D01*
X220994361Y-84517028D02*
X221708647Y-84755123D01*
X221708647Y-84136076D01*
X229735142Y-87625180D02*
X229401809Y-87148990D01*
X229163714Y-87625180D02*
X229163714Y-86625180D01*
X229544666Y-86625180D01*
X229639904Y-86672800D01*
X229687523Y-86720419D01*
X229735142Y-86815657D01*
X229735142Y-86958514D01*
X229687523Y-87053752D01*
X229639904Y-87101371D01*
X229544666Y-87148990D01*
X229163714Y-87148990D01*
X230687523Y-87625180D02*
X230116095Y-87625180D01*
X230401809Y-87625180D02*
X230401809Y-86625180D01*
X230306571Y-86768038D01*
X230211333Y-86863276D01*
X230116095Y-86910895D01*
X231306571Y-86625180D02*
X231401809Y-86625180D01*
X231497047Y-86672800D01*
X231544666Y-86720419D01*
X231592285Y-86815657D01*
X231639904Y-87006133D01*
X231639904Y-87244228D01*
X231592285Y-87434704D01*
X231544666Y-87529942D01*
X231497047Y-87577561D01*
X231401809Y-87625180D01*
X231306571Y-87625180D01*
X231211333Y-87577561D01*
X231163714Y-87529942D01*
X231116095Y-87434704D01*
X231068476Y-87244228D01*
X231068476Y-87006133D01*
X231116095Y-86815657D01*
X231163714Y-86720419D01*
X231211333Y-86672800D01*
X231306571Y-86625180D01*
X190587333Y-65482742D02*
X190539714Y-65530361D01*
X190396857Y-65577980D01*
X190301619Y-65577980D01*
X190158761Y-65530361D01*
X190063523Y-65435123D01*
X190015904Y-65339885D01*
X189968285Y-65149409D01*
X189968285Y-65006552D01*
X190015904Y-64816076D01*
X190063523Y-64720838D01*
X190158761Y-64625600D01*
X190301619Y-64577980D01*
X190396857Y-64577980D01*
X190539714Y-64625600D01*
X190587333Y-64673219D01*
X191063523Y-65577980D02*
X191254000Y-65577980D01*
X191349238Y-65530361D01*
X191396857Y-65482742D01*
X191492095Y-65339885D01*
X191539714Y-65149409D01*
X191539714Y-64768457D01*
X191492095Y-64673219D01*
X191444476Y-64625600D01*
X191349238Y-64577980D01*
X191158761Y-64577980D01*
X191063523Y-64625600D01*
X191015904Y-64673219D01*
X190968285Y-64768457D01*
X190968285Y-65006552D01*
X191015904Y-65101790D01*
X191063523Y-65149409D01*
X191158761Y-65197028D01*
X191349238Y-65197028D01*
X191444476Y-65149409D01*
X191492095Y-65101790D01*
X191539714Y-65006552D01*
X203093580Y-81770457D02*
X202617390Y-82103790D01*
X203093580Y-82341885D02*
X202093580Y-82341885D01*
X202093580Y-81960933D01*
X202141200Y-81865695D01*
X202188819Y-81818076D01*
X202284057Y-81770457D01*
X202426914Y-81770457D01*
X202522152Y-81818076D01*
X202569771Y-81865695D01*
X202617390Y-81960933D01*
X202617390Y-82341885D01*
X203093580Y-80818076D02*
X203093580Y-81389504D01*
X203093580Y-81103790D02*
X202093580Y-81103790D01*
X202236438Y-81199028D01*
X202331676Y-81294266D01*
X202379295Y-81389504D01*
X202522152Y-80246647D02*
X202474533Y-80341885D01*
X202426914Y-80389504D01*
X202331676Y-80437123D01*
X202284057Y-80437123D01*
X202188819Y-80389504D01*
X202141200Y-80341885D01*
X202093580Y-80246647D01*
X202093580Y-80056171D01*
X202141200Y-79960933D01*
X202188819Y-79913314D01*
X202284057Y-79865695D01*
X202331676Y-79865695D01*
X202426914Y-79913314D01*
X202474533Y-79960933D01*
X202522152Y-80056171D01*
X202522152Y-80246647D01*
X202569771Y-80341885D01*
X202617390Y-80389504D01*
X202712628Y-80437123D01*
X202903104Y-80437123D01*
X202998342Y-80389504D01*
X203045961Y-80341885D01*
X203093580Y-80246647D01*
X203093580Y-80056171D01*
X203045961Y-79960933D01*
X202998342Y-79913314D01*
X202903104Y-79865695D01*
X202712628Y-79865695D01*
X202617390Y-79913314D01*
X202569771Y-79960933D01*
X202522152Y-80056171D01*
X174345695Y-72553580D02*
X174345695Y-73363104D01*
X174393314Y-73458342D01*
X174440933Y-73505961D01*
X174536171Y-73553580D01*
X174726647Y-73553580D01*
X174821885Y-73505961D01*
X174869504Y-73458342D01*
X174917123Y-73363104D01*
X174917123Y-72553580D01*
X175821885Y-72553580D02*
X175631409Y-72553580D01*
X175536171Y-72601200D01*
X175488552Y-72648819D01*
X175393314Y-72791676D01*
X175345695Y-72982152D01*
X175345695Y-73363104D01*
X175393314Y-73458342D01*
X175440933Y-73505961D01*
X175536171Y-73553580D01*
X175726647Y-73553580D01*
X175821885Y-73505961D01*
X175869504Y-73458342D01*
X175917123Y-73363104D01*
X175917123Y-73125009D01*
X175869504Y-73029771D01*
X175821885Y-72982152D01*
X175726647Y-72934533D01*
X175536171Y-72934533D01*
X175440933Y-72982152D01*
X175393314Y-73029771D01*
X175345695Y-73125009D01*
X176196666Y-64274980D02*
X176196666Y-64989266D01*
X176149047Y-65132123D01*
X176053809Y-65227361D01*
X175910952Y-65274980D01*
X175815714Y-65274980D01*
X177101428Y-64274980D02*
X176910952Y-64274980D01*
X176815714Y-64322600D01*
X176768095Y-64370219D01*
X176672857Y-64513076D01*
X176625238Y-64703552D01*
X176625238Y-65084504D01*
X176672857Y-65179742D01*
X176720476Y-65227361D01*
X176815714Y-65274980D01*
X177006190Y-65274980D01*
X177101428Y-65227361D01*
X177149047Y-65179742D01*
X177196666Y-65084504D01*
X177196666Y-64846409D01*
X177149047Y-64751171D01*
X177101428Y-64703552D01*
X177006190Y-64655933D01*
X176815714Y-64655933D01*
X176720476Y-64703552D01*
X176672857Y-64751171D01*
X176625238Y-64846409D01*
X215413580Y-77636666D02*
X214937390Y-77970000D01*
X215413580Y-78208095D02*
X214413580Y-78208095D01*
X214413580Y-77827142D01*
X214461200Y-77731904D01*
X214508819Y-77684285D01*
X214604057Y-77636666D01*
X214746914Y-77636666D01*
X214842152Y-77684285D01*
X214889771Y-77731904D01*
X214937390Y-77827142D01*
X214937390Y-78208095D01*
X214413580Y-76779523D02*
X214413580Y-76970000D01*
X214461200Y-77065238D01*
X214508819Y-77112857D01*
X214651676Y-77208095D01*
X214842152Y-77255714D01*
X215223104Y-77255714D01*
X215318342Y-77208095D01*
X215365961Y-77160476D01*
X215413580Y-77065238D01*
X215413580Y-76874761D01*
X215365961Y-76779523D01*
X215318342Y-76731904D01*
X215223104Y-76684285D01*
X214985009Y-76684285D01*
X214889771Y-76731904D01*
X214842152Y-76779523D01*
X214794533Y-76874761D01*
X214794533Y-77065238D01*
X214842152Y-77160476D01*
X214889771Y-77208095D01*
X214985009Y-77255714D01*
X237863142Y-109899980D02*
X237529809Y-109423790D01*
X237291714Y-109899980D02*
X237291714Y-108899980D01*
X237672666Y-108899980D01*
X237767904Y-108947600D01*
X237815523Y-108995219D01*
X237863142Y-109090457D01*
X237863142Y-109233314D01*
X237815523Y-109328552D01*
X237767904Y-109376171D01*
X237672666Y-109423790D01*
X237291714Y-109423790D01*
X238815523Y-109899980D02*
X238244095Y-109899980D01*
X238529809Y-109899980D02*
X238529809Y-108899980D01*
X238434571Y-109042838D01*
X238339333Y-109138076D01*
X238244095Y-109185695D01*
X239672666Y-109233314D02*
X239672666Y-109899980D01*
X239434571Y-108852361D02*
X239196476Y-109566647D01*
X239815523Y-109566647D01*
X211923333Y-97073980D02*
X211590000Y-96597790D01*
X211351904Y-97073980D02*
X211351904Y-96073980D01*
X211732857Y-96073980D01*
X211828095Y-96121600D01*
X211875714Y-96169219D01*
X211923333Y-96264457D01*
X211923333Y-96407314D01*
X211875714Y-96502552D01*
X211828095Y-96550171D01*
X211732857Y-96597790D01*
X211351904Y-96597790D01*
X212256666Y-96073980D02*
X212875714Y-96073980D01*
X212542380Y-96454933D01*
X212685238Y-96454933D01*
X212780476Y-96502552D01*
X212828095Y-96550171D01*
X212875714Y-96645409D01*
X212875714Y-96883504D01*
X212828095Y-96978742D01*
X212780476Y-97026361D01*
X212685238Y-97073980D01*
X212399523Y-97073980D01*
X212304285Y-97026361D01*
X212256666Y-96978742D01*
X181823466Y-111307847D02*
X181914895Y-111338323D01*
X182067276Y-111338323D01*
X182128228Y-111307847D01*
X182158704Y-111277371D01*
X182189180Y-111216419D01*
X182189180Y-111155466D01*
X182158704Y-111094514D01*
X182128228Y-111064038D01*
X182067276Y-111033561D01*
X181945371Y-111003085D01*
X181884419Y-110972609D01*
X181853942Y-110942133D01*
X181823466Y-110881180D01*
X181823466Y-110820228D01*
X181853942Y-110759276D01*
X181884419Y-110728800D01*
X181945371Y-110698323D01*
X182097752Y-110698323D01*
X182189180Y-110728800D01*
X182402514Y-110698323D02*
X182554895Y-111338323D01*
X182676800Y-110881180D01*
X182798704Y-111338323D01*
X182951085Y-110698323D01*
X183164419Y-110759276D02*
X183194895Y-110728800D01*
X183255847Y-110698323D01*
X183408228Y-110698323D01*
X183469180Y-110728800D01*
X183499657Y-110759276D01*
X183530133Y-110820228D01*
X183530133Y-110881180D01*
X183499657Y-110972609D01*
X183133942Y-111338323D01*
X183530133Y-111338323D01*
X175676342Y-107557866D02*
X175723961Y-107605485D01*
X175771580Y-107748342D01*
X175771580Y-107843580D01*
X175723961Y-107986438D01*
X175628723Y-108081676D01*
X175533485Y-108129295D01*
X175343009Y-108176914D01*
X175200152Y-108176914D01*
X175009676Y-108129295D01*
X174914438Y-108081676D01*
X174819200Y-107986438D01*
X174771580Y-107843580D01*
X174771580Y-107748342D01*
X174819200Y-107605485D01*
X174866819Y-107557866D01*
X175200152Y-106986438D02*
X175152533Y-107081676D01*
X175104914Y-107129295D01*
X175009676Y-107176914D01*
X174962057Y-107176914D01*
X174866819Y-107129295D01*
X174819200Y-107081676D01*
X174771580Y-106986438D01*
X174771580Y-106795961D01*
X174819200Y-106700723D01*
X174866819Y-106653104D01*
X174962057Y-106605485D01*
X175009676Y-106605485D01*
X175104914Y-106653104D01*
X175152533Y-106700723D01*
X175200152Y-106795961D01*
X175200152Y-106986438D01*
X175247771Y-107081676D01*
X175295390Y-107129295D01*
X175390628Y-107176914D01*
X175581104Y-107176914D01*
X175676342Y-107129295D01*
X175723961Y-107081676D01*
X175771580Y-106986438D01*
X175771580Y-106795961D01*
X175723961Y-106700723D01*
X175676342Y-106653104D01*
X175581104Y-106605485D01*
X175390628Y-106605485D01*
X175295390Y-106653104D01*
X175247771Y-106700723D01*
X175200152Y-106795961D01*
X228992133Y-74213980D02*
X228658800Y-73737790D01*
X228420704Y-74213980D02*
X228420704Y-73213980D01*
X228801657Y-73213980D01*
X228896895Y-73261600D01*
X228944514Y-73309219D01*
X228992133Y-73404457D01*
X228992133Y-73547314D01*
X228944514Y-73642552D01*
X228896895Y-73690171D01*
X228801657Y-73737790D01*
X228420704Y-73737790D01*
X229896895Y-73213980D02*
X229420704Y-73213980D01*
X229373085Y-73690171D01*
X229420704Y-73642552D01*
X229515942Y-73594933D01*
X229754038Y-73594933D01*
X229849276Y-73642552D01*
X229896895Y-73690171D01*
X229944514Y-73785409D01*
X229944514Y-74023504D01*
X229896895Y-74118742D01*
X229849276Y-74166361D01*
X229754038Y-74213980D01*
X229515942Y-74213980D01*
X229420704Y-74166361D01*
X229373085Y-74118742D01*
X231547942Y-93911657D02*
X231595561Y-93959276D01*
X231643180Y-94102133D01*
X231643180Y-94197371D01*
X231595561Y-94340228D01*
X231500323Y-94435466D01*
X231405085Y-94483085D01*
X231214609Y-94530704D01*
X231071752Y-94530704D01*
X230881276Y-94483085D01*
X230786038Y-94435466D01*
X230690800Y-94340228D01*
X230643180Y-94197371D01*
X230643180Y-94102133D01*
X230690800Y-93959276D01*
X230738419Y-93911657D01*
X231643180Y-92959276D02*
X231643180Y-93530704D01*
X231643180Y-93244990D02*
X230643180Y-93244990D01*
X230786038Y-93340228D01*
X230881276Y-93435466D01*
X230928895Y-93530704D01*
X230643180Y-92625942D02*
X230643180Y-92006895D01*
X231024133Y-92340228D01*
X231024133Y-92197371D01*
X231071752Y-92102133D01*
X231119371Y-92054514D01*
X231214609Y-92006895D01*
X231452704Y-92006895D01*
X231547942Y-92054514D01*
X231595561Y-92102133D01*
X231643180Y-92197371D01*
X231643180Y-92483085D01*
X231595561Y-92578323D01*
X231547942Y-92625942D01*
X239431580Y-90960533D02*
X240145866Y-90960533D01*
X240288723Y-91008152D01*
X240383961Y-91103390D01*
X240431580Y-91246247D01*
X240431580Y-91341485D01*
X239431580Y-90008152D02*
X239431580Y-90484342D01*
X239907771Y-90531961D01*
X239860152Y-90484342D01*
X239812533Y-90389104D01*
X239812533Y-90151009D01*
X239860152Y-90055771D01*
X239907771Y-90008152D01*
X240003009Y-89960533D01*
X240241104Y-89960533D01*
X240336342Y-90008152D01*
X240383961Y-90055771D01*
X240431580Y-90151009D01*
X240431580Y-90389104D01*
X240383961Y-90484342D01*
X240336342Y-90531961D01*
X184049942Y-107456266D02*
X184097561Y-107503885D01*
X184145180Y-107646742D01*
X184145180Y-107741980D01*
X184097561Y-107884838D01*
X184002323Y-107980076D01*
X183907085Y-108027695D01*
X183716609Y-108075314D01*
X183573752Y-108075314D01*
X183383276Y-108027695D01*
X183288038Y-107980076D01*
X183192800Y-107884838D01*
X183145180Y-107741980D01*
X183145180Y-107646742D01*
X183192800Y-107503885D01*
X183240419Y-107456266D01*
X183145180Y-106551504D02*
X183145180Y-107027695D01*
X183621371Y-107075314D01*
X183573752Y-107027695D01*
X183526133Y-106932457D01*
X183526133Y-106694361D01*
X183573752Y-106599123D01*
X183621371Y-106551504D01*
X183716609Y-106503885D01*
X183954704Y-106503885D01*
X184049942Y-106551504D01*
X184097561Y-106599123D01*
X184145180Y-106694361D01*
X184145180Y-106932457D01*
X184097561Y-107027695D01*
X184049942Y-107075314D01*
X199537580Y-83326266D02*
X199061390Y-83659600D01*
X199537580Y-83897695D02*
X198537580Y-83897695D01*
X198537580Y-83516742D01*
X198585200Y-83421504D01*
X198632819Y-83373885D01*
X198728057Y-83326266D01*
X198870914Y-83326266D01*
X198966152Y-83373885D01*
X199013771Y-83421504D01*
X199061390Y-83516742D01*
X199061390Y-83897695D01*
X199537580Y-82373885D02*
X199537580Y-82945314D01*
X199537580Y-82659600D02*
X198537580Y-82659600D01*
X198680438Y-82754838D01*
X198775676Y-82850076D01*
X198823295Y-82945314D01*
X193838533Y-94150742D02*
X193790914Y-94198361D01*
X193648057Y-94245980D01*
X193552819Y-94245980D01*
X193409961Y-94198361D01*
X193314723Y-94103123D01*
X193267104Y-94007885D01*
X193219485Y-93817409D01*
X193219485Y-93674552D01*
X193267104Y-93484076D01*
X193314723Y-93388838D01*
X193409961Y-93293600D01*
X193552819Y-93245980D01*
X193648057Y-93245980D01*
X193790914Y-93293600D01*
X193838533Y-93341219D01*
X194695676Y-93579314D02*
X194695676Y-94245980D01*
X194457580Y-93198361D02*
X194219485Y-93912647D01*
X194838533Y-93912647D01*
D12*
X238428264Y-74242600D02*
X237974136Y-74242600D01*
X238428264Y-72772600D02*
X237974136Y-72772600D01*
X214850000Y-100006037D02*
X214850000Y-100641600D01*
X214850000Y-103397163D02*
X214850000Y-102761600D01*
X213785563Y-98941600D02*
X209330000Y-98941600D01*
X213785563Y-104461600D02*
X209330000Y-104461600D01*
X214850000Y-103397163D02*
X213785563Y-104461600D01*
X215715000Y-103386600D02*
X215090000Y-103386600D01*
X214850000Y-100006037D02*
X213785563Y-98941600D01*
X209330000Y-98941600D02*
X209330000Y-100641600D01*
X215402500Y-103699100D02*
X215402500Y-103074100D01*
X209330000Y-104461600D02*
X209330000Y-102761600D01*
D13*
X209257900Y-75158615D02*
X209257900Y-71145385D01*
X201104500Y-71145385D02*
X201104500Y-75158615D01*
G36*
X203096701Y-69342000D02*
G01*
X202715701Y-69342000D01*
X202715701Y-69088000D01*
X203096701Y-69088000D01*
X203096701Y-69342000D01*
G37*
G36*
X206346699Y-77216000D02*
G01*
X205965699Y-77216000D01*
X205965699Y-76962000D01*
X206346699Y-76962000D01*
X206346699Y-77216000D01*
G37*
D12*
X230401800Y-101319064D02*
X230401800Y-100864936D01*
X228931800Y-101319064D02*
X228931800Y-100864936D01*
X194489336Y-70486600D02*
X194943464Y-70486600D01*
X194489336Y-71956600D02*
X194943464Y-71956600D01*
X229913548Y-111736200D02*
X230436052Y-111736200D01*
X229913548Y-113206200D02*
X230436052Y-113206200D01*
X230554200Y-81149564D02*
X230554200Y-80695436D01*
X229084200Y-81149564D02*
X229084200Y-80695436D01*
X187021736Y-82170600D02*
X187475864Y-82170600D01*
X187021736Y-83640600D02*
X187475864Y-83640600D01*
X206772300Y-105704300D02*
X206147300Y-105704300D01*
X206470363Y-106256800D02*
X205834800Y-106256800D01*
X203079237Y-106256800D02*
X203714800Y-106256800D01*
X202014800Y-111776800D02*
X203714800Y-111776800D01*
X207534800Y-107321237D02*
X207534800Y-111776800D01*
X202014800Y-107321237D02*
X202014800Y-111776800D01*
X203079237Y-106256800D02*
X202014800Y-107321237D01*
X206470363Y-106256800D02*
X207534800Y-107321237D01*
X207534800Y-111776800D02*
X205834800Y-111776800D01*
X206459800Y-105391800D02*
X206459800Y-106016800D01*
X235971000Y-102962400D02*
X233371000Y-102962400D01*
X233371000Y-102962400D02*
X233371000Y-105622400D01*
X238571000Y-102962400D02*
X238571000Y-104292400D01*
X237241000Y-102962400D02*
X238571000Y-102962400D01*
X235971000Y-105622400D02*
X233371000Y-105622400D01*
X235971000Y-102962400D02*
X235971000Y-105622400D01*
X214802400Y-108813600D02*
X214802400Y-110763600D01*
X209682400Y-108813600D02*
X209682400Y-110763600D01*
X214802400Y-108813600D02*
X214802400Y-105363600D01*
X209682400Y-108813600D02*
X209682400Y-106863600D01*
X191545600Y-110598000D02*
X195305600Y-110598000D01*
X189295600Y-103778000D02*
X195305600Y-103778000D01*
X195305600Y-103778000D02*
X195305600Y-105038000D01*
X195305600Y-110598000D02*
X195305600Y-109338000D01*
X211910600Y-77172452D02*
X211910600Y-76649948D01*
X210440600Y-77172452D02*
X210440600Y-76649948D01*
X201530852Y-77954200D02*
X201008348Y-77954200D01*
X201530852Y-79424200D02*
X201008348Y-79424200D01*
D13*
X228315200Y-85496400D02*
X228315200Y-84429600D01*
X228315200Y-86512400D02*
X228315200Y-85496400D01*
X227934200Y-84048600D02*
X223616200Y-84048600D01*
D14*
X228315200Y-84404200D02*
X223235200Y-84404200D01*
D13*
X228315200Y-87579200D02*
X228315200Y-86512400D01*
X223616200Y-87960200D02*
X227934200Y-87960200D01*
X227934200Y-87960200D02*
G75*
G03*
X228315200Y-87579200I1J380999D01*
G01*
X228315200Y-84429600D02*
G75*
G03*
X227934200Y-84048600I-380999J1D01*
G01*
X228315200Y-85496400D02*
G75*
G03*
X228315200Y-86512400I0J-508000D01*
G01*
X223235200Y-87579200D02*
G75*
G03*
X223616200Y-87960200I381000J0D01*
G01*
X223616200Y-84048600D02*
G75*
G03*
X223235200Y-84429600I0J-381000D01*
G01*
D15*
X202448400Y-84009600D02*
X207448400Y-84009600D01*
X216448400Y-84009600D02*
X216448400Y-86009600D01*
X202448400Y-95009600D02*
X207948400Y-95009600D01*
X202448400Y-85509600D02*
X202448400Y-84009600D01*
X210948400Y-95009600D02*
X216448400Y-95009600D01*
X210948400Y-84009600D02*
X216448400Y-84009600D01*
X202448400Y-93509600D02*
X202448400Y-95009600D01*
X216448400Y-95009600D02*
X216448400Y-93009600D01*
D16*
X201148400Y-92009600D02*
G75*
G03*
X201148400Y-92009600I-200000J0D01*
G01*
D13*
X228112000Y-106375200D02*
X228112000Y-105359200D01*
X227731000Y-103911400D02*
X223413000Y-103911400D01*
D14*
X228112000Y-104267000D02*
X223032000Y-104267000D01*
D13*
X223413000Y-107823000D02*
X227731000Y-107823000D01*
X228112000Y-107442000D02*
X228112000Y-106375200D01*
X228112000Y-105359200D02*
X228112000Y-104292400D01*
X228112000Y-105359200D02*
G75*
G03*
X228112000Y-106375200I0J-508000D01*
G01*
X227731000Y-107823000D02*
G75*
G03*
X228112000Y-107442000I1J380999D01*
G01*
X228112000Y-104292400D02*
G75*
G03*
X227731000Y-103911400I-380999J1D01*
G01*
X223413000Y-103911400D02*
G75*
G03*
X223032000Y-104292400I0J-381000D01*
G01*
X223032000Y-107442000D02*
G75*
G03*
X223413000Y-107823000I381000J0D01*
G01*
D15*
X242236000Y-101832800D02*
X233236000Y-101832800D01*
X233236000Y-101832800D02*
X233236000Y-92832800D01*
X242236000Y-94582800D02*
X242236000Y-101832800D01*
X245736000Y-94582800D02*
X242236000Y-94582800D01*
X242226000Y-100082800D02*
X245736000Y-100082800D01*
X233236000Y-92832800D02*
X242236000Y-92832800D01*
X245736000Y-100082800D02*
X245736000Y-94582800D01*
X242236000Y-92832800D02*
X242236000Y-94582800D01*
D17*
X240086000Y-92082800D02*
G75*
G03*
X240086000Y-92082800I-200000J0D01*
G01*
D12*
X187049600Y-88290400D02*
G75*
G03*
X187049600Y-88290400I-6100000J0D01*
G01*
X214758536Y-81459400D02*
X215212664Y-81459400D01*
X214758536Y-82929400D02*
X215212664Y-82929400D01*
X196419736Y-113463400D02*
X196873864Y-113463400D01*
X196419736Y-114933400D02*
X196873864Y-114933400D01*
X220753000Y-102674052D02*
X220753000Y-102151548D01*
X222223000Y-102674052D02*
X222223000Y-102151548D01*
X238510200Y-78139600D02*
X238510200Y-75479600D01*
X233310200Y-78139600D02*
X233310200Y-76809600D01*
X235910200Y-78139600D02*
X235910200Y-75479600D01*
X234640200Y-78139600D02*
X233310200Y-78139600D01*
X235910200Y-75479600D02*
X238510200Y-75479600D01*
X235910200Y-78139600D02*
X238510200Y-78139600D01*
X196118000Y-102726800D02*
X196118000Y-100066800D01*
X178278000Y-102726800D02*
X178278000Y-100066800D01*
X175678000Y-102726800D02*
X175678000Y-101396800D01*
X177008000Y-102726800D02*
X175678000Y-102726800D01*
X178278000Y-100066800D02*
X196118000Y-100066800D01*
X178278000Y-102726800D02*
X196118000Y-102726800D01*
X175006000Y-95173800D02*
X196850000Y-95173800D01*
X196850000Y-95173800D02*
X196850000Y-102793800D01*
X196850000Y-102793800D02*
X175006000Y-102793800D01*
X175006000Y-102793800D02*
X175006000Y-95173800D01*
D13*
X228155500Y-98488500D02*
X228155500Y-94246700D01*
X222948500Y-94246700D02*
X222948500Y-98488500D01*
D12*
X188875400Y-115333400D02*
X192760400Y-115333400D01*
X192760400Y-113063400D02*
X188875400Y-113063400D01*
X188875400Y-113063400D02*
X188875400Y-115333400D01*
X217673600Y-109626452D02*
X217673600Y-108203948D01*
X215853600Y-109626452D02*
X215853600Y-108203948D01*
X230147800Y-109802664D02*
X230147800Y-109348536D01*
X228677800Y-109802664D02*
X228677800Y-109348536D01*
X222426200Y-109853464D02*
X222426200Y-109399336D01*
X220956200Y-109853464D02*
X220956200Y-109399336D01*
X210440600Y-71533652D02*
X210440600Y-71011148D01*
X211910600Y-71533652D02*
X211910600Y-71011148D01*
X207084600Y-79732136D02*
X207084600Y-80186264D01*
X205614600Y-79732136D02*
X205614600Y-80186264D01*
X220776800Y-72094400D02*
X231162800Y-72094400D01*
X231162800Y-72094400D02*
X231162800Y-69434400D01*
X220776800Y-69434400D02*
X231162800Y-69434400D01*
X220776800Y-72094400D02*
X220776800Y-69434400D01*
X220141800Y-104165400D02*
X231825800Y-104165400D01*
X231825800Y-104165400D02*
X231825800Y-68986400D01*
X231825800Y-68986400D02*
X220141800Y-68986400D01*
X220141800Y-68986400D02*
X220141800Y-104165400D01*
X222731000Y-89889064D02*
X222731000Y-89434936D01*
X221261000Y-89889064D02*
X221261000Y-89434936D01*
X215876200Y-72112136D02*
X215876200Y-72566264D01*
X217346200Y-72112136D02*
X217346200Y-72566264D01*
D15*
X233185200Y-88167600D02*
X233185200Y-79167600D01*
X245685200Y-80917600D02*
X242185200Y-80917600D01*
X242185200Y-80917600D02*
X242185200Y-88167600D01*
X242175200Y-86417600D02*
X245685200Y-86417600D01*
X242185200Y-88167600D02*
X233185200Y-88167600D01*
X242185200Y-79167600D02*
X242185200Y-80917600D01*
X245685200Y-86417600D02*
X245685200Y-80917600D01*
X233185200Y-79167600D02*
X242185200Y-79167600D01*
D17*
X240035200Y-78417600D02*
G75*
G03*
X240035200Y-78417600I-200000J0D01*
G01*
D12*
X220905400Y-82455652D02*
X220905400Y-81933148D01*
X222375400Y-82455652D02*
X222375400Y-81933148D01*
X228931800Y-89838264D02*
X228931800Y-89384136D01*
X230401800Y-89838264D02*
X230401800Y-89384136D01*
X188410763Y-73092400D02*
X180755200Y-73092400D01*
X190715200Y-71242400D02*
X189715200Y-71242400D01*
X189475200Y-72027963D02*
X188410763Y-73092400D01*
X180755200Y-73092400D02*
X180755200Y-70242400D01*
X189475200Y-72027963D02*
X189475200Y-70242400D01*
X188410763Y-64372400D02*
X180755200Y-64372400D01*
X189475200Y-65436837D02*
X188410763Y-64372400D01*
X189475200Y-65436837D02*
X189475200Y-67222400D01*
X180755200Y-64372400D02*
X180755200Y-67222400D01*
X190215200Y-71742400D02*
X190215200Y-70742400D01*
X204951000Y-80186264D02*
X204951000Y-79732136D01*
X203481000Y-80186264D02*
X203481000Y-79732136D01*
X178278000Y-78781600D02*
X196118000Y-78781600D01*
X175678000Y-81441600D02*
X175678000Y-80111600D01*
X177008000Y-81441600D02*
X175678000Y-81441600D01*
X178278000Y-81441600D02*
X196118000Y-81441600D01*
X178278000Y-81441600D02*
X178278000Y-78781600D01*
X196118000Y-81441600D02*
X196118000Y-78781600D01*
X175006000Y-73888600D02*
X196850000Y-73888600D01*
X196850000Y-73888600D02*
X196850000Y-81508600D01*
X196850000Y-81508600D02*
X175006000Y-81508600D01*
X175006000Y-81508600D02*
X175006000Y-73888600D01*
X175200000Y-68422600D02*
X175200000Y-71022600D01*
X175200000Y-71022600D02*
X177860000Y-71022600D01*
X177860000Y-68422600D02*
X177860000Y-71022600D01*
X175200000Y-67152600D02*
X175200000Y-65822600D01*
X175200000Y-68422600D02*
X177860000Y-68422600D01*
X175200000Y-65822600D02*
X176530000Y-65822600D01*
X215876200Y-77697064D02*
X215876200Y-77242936D01*
X217346200Y-77697064D02*
X217346200Y-77242936D01*
X238733064Y-107062600D02*
X238278936Y-107062600D01*
X238733064Y-108532600D02*
X238278936Y-108532600D01*
X214807436Y-97509000D02*
X215261564Y-97509000D01*
X214807436Y-96039000D02*
X215261564Y-96039000D01*
D15*
X175345100Y-116046000D02*
X186945100Y-116046000D01*
X175345100Y-112046000D02*
X175345100Y-116046000D01*
X186945100Y-112046000D02*
X175345100Y-112046000D01*
X186945100Y-116046000D02*
X186945100Y-112046000D01*
D18*
X174745100Y-114046000D02*
G75*
G03*
X174745100Y-114046000I-100000J0D01*
G01*
D12*
X181779200Y-104631200D02*
X180079200Y-104631200D01*
X177323637Y-110151200D02*
X176259200Y-109086763D01*
X177323637Y-110151200D02*
X177959200Y-110151200D01*
X180714763Y-110151200D02*
X181779200Y-109086763D01*
X180714763Y-110151200D02*
X180079200Y-110151200D01*
X176259200Y-109086763D02*
X176259200Y-104631200D01*
X177021700Y-110703700D02*
X177646700Y-110703700D01*
X176259200Y-104631200D02*
X177959200Y-104631200D01*
X181779200Y-109086763D02*
X181779200Y-104631200D01*
X177334200Y-111016200D02*
X177334200Y-110391200D01*
D13*
X228358700Y-78778100D02*
X228358700Y-74536300D01*
X223151700Y-74536300D02*
X223151700Y-78778100D01*
D12*
X228931800Y-93007548D02*
X228931800Y-93530052D01*
X230401800Y-93007548D02*
X230401800Y-93530052D01*
X237241000Y-89195600D02*
X238571000Y-89195600D01*
X233371000Y-89195600D02*
X233371000Y-91855600D01*
X235971000Y-91855600D02*
X233371000Y-91855600D01*
X235971000Y-89195600D02*
X233371000Y-89195600D01*
X238571000Y-89195600D02*
X238571000Y-90525600D01*
X235971000Y-89195600D02*
X235971000Y-91855600D01*
X186584000Y-108610452D02*
X186584000Y-107187948D01*
X184764000Y-108610452D02*
X184764000Y-107187948D01*
X201496600Y-82780136D02*
X201496600Y-83234264D01*
X200026600Y-82780136D02*
X200026600Y-83234264D01*
X198365200Y-85198037D02*
X197300763Y-84133600D01*
X199105200Y-91503600D02*
X199105200Y-90503600D01*
X198365200Y-85198037D02*
X198365200Y-86983600D01*
X199605200Y-91003600D02*
X198605200Y-91003600D01*
X189645200Y-84133600D02*
X189645200Y-86983600D01*
X197300763Y-84133600D02*
X189645200Y-84133600D01*
X197300763Y-92853600D02*
X189645200Y-92853600D01*
X198365200Y-91789163D02*
X197300763Y-92853600D01*
X189645200Y-92853600D02*
X189645200Y-90003600D01*
X198365200Y-91789163D02*
X198365200Y-90003600D01*
%LPC*%
D19*
X239113700Y-73507600D03*
X237288700Y-73507600D03*
D20*
X214290000Y-101701600D03*
X209890000Y-101701600D03*
D21*
X208756199Y-70332600D03*
X208106200Y-70332600D03*
X207456202Y-70332600D03*
X206806201Y-70332600D03*
X206156202Y-70332600D03*
X205506201Y-70332600D03*
X204856202Y-70332600D03*
X204206201Y-70332600D03*
X203556202Y-70332600D03*
X202906201Y-70332600D03*
X202256202Y-70332600D03*
X201606201Y-70332600D03*
X201606201Y-75971400D03*
X202256200Y-75971400D03*
X202906201Y-75971400D03*
X203556199Y-75971400D03*
X204206201Y-75971400D03*
X204856199Y-75971400D03*
X205506198Y-75971400D03*
X206156199Y-75971400D03*
X206806198Y-75971400D03*
X207456199Y-75971400D03*
X208106198Y-75971400D03*
X208756199Y-75971400D03*
D22*
X205181200Y-73152000D03*
D23*
X229666800Y-102004500D03*
X229666800Y-100179500D03*
D24*
X193803900Y-71221600D03*
X195628900Y-71221600D03*
D25*
X229224800Y-112471200D03*
X231124800Y-112471200D03*
D23*
X229819200Y-81835000D03*
X229819200Y-80010000D03*
D24*
X186336300Y-82905600D03*
X188161300Y-82905600D03*
D26*
X204774800Y-106816800D03*
X204774800Y-111216800D03*
D27*
X237241000Y-104292400D03*
D28*
X234701000Y-104292400D03*
D29*
X214147400Y-106338600D03*
X212877400Y-106338600D03*
X211607400Y-106338600D03*
X210337400Y-106338600D03*
X210337400Y-111288600D03*
X211607400Y-111288600D03*
X212877400Y-111288600D03*
X214147400Y-111288600D03*
D30*
X190245600Y-104888000D03*
X190245600Y-107188000D03*
X190245600Y-109488000D03*
D31*
X196545600Y-107188000D03*
D32*
X211175600Y-77861200D03*
X211175600Y-75961200D03*
D33*
X202219600Y-78689200D03*
X200319600Y-78689200D03*
D34*
X227680200Y-83204400D03*
X226410200Y-83204400D03*
X225140200Y-83204400D03*
X223870200Y-83204400D03*
X223870200Y-88804400D03*
X225140200Y-88804400D03*
X226410200Y-88804400D03*
X227680200Y-88804400D03*
D35*
X225755200Y-86004400D03*
D36*
X209448400Y-95109600D03*
X209448400Y-83909600D03*
D37*
X216948400Y-92009600D03*
X216948400Y-87009600D03*
X216948400Y-89509600D03*
D38*
X202448400Y-92009600D03*
D37*
X202448400Y-87009600D03*
D34*
X227477000Y-103067200D03*
X226207000Y-103067200D03*
X224937000Y-103067200D03*
X223667000Y-103067200D03*
X223667000Y-108667200D03*
X224937000Y-108667200D03*
X226207000Y-108667200D03*
X227477000Y-108667200D03*
D35*
X225552000Y-105867200D03*
D39*
X239636000Y-97332800D03*
D40*
X234936000Y-100732800D03*
X234936000Y-93732800D03*
D41*
X180949600Y-84490400D03*
D42*
X180949600Y-92090400D03*
D24*
X214073100Y-82194400D03*
X215898100Y-82194400D03*
X195734300Y-114198400D03*
X197559300Y-114198400D03*
D32*
X221488000Y-103362800D03*
X221488000Y-101462800D03*
D27*
X234640200Y-76809600D03*
D28*
X237180200Y-76809600D03*
D27*
X177008000Y-101396800D03*
D28*
X179548000Y-101396800D03*
X187168000Y-101396800D03*
X189708000Y-101396800D03*
X192248000Y-101396800D03*
X194788000Y-101396800D03*
D43*
X227457000Y-93637100D03*
X226187000Y-93637100D03*
X224917000Y-93637100D03*
X223647000Y-93637100D03*
X223647000Y-99098100D03*
X224917000Y-99098100D03*
X226187000Y-99098100D03*
X227457000Y-99098100D03*
D44*
X189760400Y-114198400D03*
X192560400Y-114198400D03*
D45*
X216763600Y-110390200D03*
X216763600Y-107440200D03*
D23*
X229412800Y-110488100D03*
X229412800Y-108663100D03*
X221691200Y-110538900D03*
X221691200Y-108713900D03*
D32*
X211175600Y-72222400D03*
X211175600Y-70322400D03*
D46*
X206349600Y-79046700D03*
X206349600Y-80871700D03*
D27*
X222212800Y-70764400D03*
D28*
X224752800Y-70764400D03*
X227292800Y-70764400D03*
X229832800Y-70764400D03*
D23*
X221996000Y-90574500D03*
X221996000Y-88749500D03*
D46*
X216611200Y-71426700D03*
X216611200Y-73251700D03*
D39*
X239585200Y-83667600D03*
D40*
X234885200Y-87067600D03*
X234885200Y-80067600D03*
D32*
X221640400Y-83144400D03*
X221640400Y-81244400D03*
D23*
X229666800Y-90523700D03*
X229666800Y-88698700D03*
D47*
X188815200Y-68732400D03*
X181415200Y-68732400D03*
D23*
X204216000Y-80871700D03*
X204216000Y-79046700D03*
D27*
X177008000Y-80111600D03*
D28*
X179548000Y-80111600D03*
X187168000Y-80111600D03*
X189708000Y-80111600D03*
X192248000Y-80111600D03*
X194788000Y-80111600D03*
D27*
X176530000Y-67152600D03*
D28*
X176530000Y-69692600D03*
D23*
X216611200Y-78382500D03*
X216611200Y-76557500D03*
D19*
X239418500Y-107797600D03*
X237593500Y-107797600D03*
D24*
X214122000Y-96774000D03*
X215947000Y-96774000D03*
D48*
X178645100Y-114046000D03*
D49*
X181145100Y-114046000D03*
X183645100Y-114046000D03*
D50*
X179019200Y-109591200D03*
X179019200Y-105191200D03*
D43*
X227660200Y-73926700D03*
X226390200Y-73926700D03*
X225120200Y-73926700D03*
X223850200Y-73926700D03*
X223850200Y-79387700D03*
X225120200Y-79387700D03*
X226390200Y-79387700D03*
X227660200Y-79387700D03*
D51*
X229666800Y-92318800D03*
X229666800Y-94218800D03*
D27*
X237241000Y-90525600D03*
D28*
X234701000Y-90525600D03*
D45*
X185674000Y-109374200D03*
X185674000Y-106424200D03*
D46*
X200761600Y-82094700D03*
X200761600Y-83919700D03*
D47*
X197705200Y-88493600D03*
X190305200Y-88493600D03*
D52*
X202057000Y-114706400D03*
D53*
X204597000Y-114706400D03*
X207137000Y-114706400D03*
X209677000Y-114706400D03*
X212217000Y-114706400D03*
X214757000Y-114706400D03*
X217297000Y-114706400D03*
X219837000Y-114706400D03*
X224917000Y-114706400D03*
X227457000Y-114706400D03*
X229997000Y-114706400D03*
X232537000Y-114706400D03*
X235077000Y-114706400D03*
X237617000Y-114706400D03*
X237617000Y-66446400D03*
X235077000Y-66446400D03*
X232537000Y-66446400D03*
X229997000Y-66446400D03*
X227457000Y-66446400D03*
X224917000Y-66446400D03*
X222377000Y-66446400D03*
X219837000Y-66446400D03*
X215777000Y-66446400D03*
X213237000Y-66446400D03*
X210697000Y-66446400D03*
X208157000Y-66446400D03*
X205617000Y-66446400D03*
X203077000Y-66446400D03*
X200537000Y-66446400D03*
X197997000Y-66446400D03*
X195457000Y-66446400D03*
X192917000Y-66446400D03*
M02*
