G04 #@! TF.GenerationSoftware,KiCad,Pcbnew,(6.0.4)*
G04 #@! TF.CreationDate,2023-10-19T14:50:22+10:00*
G04 #@! TF.ProjectId,OpenXstim,4f70656e-5873-4746-996d-2e6b69636164,rev?*
G04 #@! TF.SameCoordinates,Original*
G04 #@! TF.FileFunction,Legend,Bot*
G04 #@! TF.FilePolarity,Positive*
%FSLAX46Y46*%
G04 Gerber Fmt 4.6, Leading zero omitted, Abs format (unit mm)*
G04 Created by KiCad (PCBNEW (6.0.4)) date 2023-10-19 14:50:22*
%MOMM*%
%LPD*%
G01*
G04 APERTURE LIST*
%ADD10C,0.300000*%
%ADD11C,0.150000*%
%ADD12C,0.120000*%
%ADD13R,1.700000X1.700000*%
%ADD14O,1.700000X1.700000*%
%ADD15C,2.600000*%
%ADD16C,1.800000*%
%ADD17R,1.800000X1.800000*%
%ADD18O,1.508000X3.016000*%
%ADD19O,3.016000X1.508000*%
%ADD20R,2.000000X2.000000*%
%ADD21C,2.000000*%
%ADD22R,1.408000X1.408000*%
%ADD23C,1.408000*%
%ADD24R,1.600000X1.600000*%
%ADD25O,1.600000X1.600000*%
G04 APERTURE END LIST*
D10*
X228698528Y-97810685D02*
X228698528Y-97524971D01*
X228627100Y-97382114D01*
X228484242Y-97239257D01*
X228198528Y-97167828D01*
X227698528Y-97167828D01*
X227412814Y-97239257D01*
X227269957Y-97382114D01*
X227198528Y-97524971D01*
X227198528Y-97810685D01*
X227269957Y-97953542D01*
X227412814Y-98096400D01*
X227698528Y-98167828D01*
X228198528Y-98167828D01*
X228484242Y-98096400D01*
X228627100Y-97953542D01*
X228698528Y-97810685D01*
X228198528Y-96524971D02*
X226698528Y-96524971D01*
X228127100Y-96524971D02*
X228198528Y-96382114D01*
X228198528Y-96096400D01*
X228127100Y-95953542D01*
X228055671Y-95882114D01*
X227912814Y-95810685D01*
X227484242Y-95810685D01*
X227341385Y-95882114D01*
X227269957Y-95953542D01*
X227198528Y-96096400D01*
X227198528Y-96382114D01*
X227269957Y-96524971D01*
X227269957Y-94596400D02*
X227198528Y-94739257D01*
X227198528Y-95024971D01*
X227269957Y-95167828D01*
X227412814Y-95239257D01*
X227984242Y-95239257D01*
X228127100Y-95167828D01*
X228198528Y-95024971D01*
X228198528Y-94739257D01*
X228127100Y-94596400D01*
X227984242Y-94524971D01*
X227841385Y-94524971D01*
X227698528Y-95239257D01*
X228198528Y-93882114D02*
X227198528Y-93882114D01*
X228055671Y-93882114D02*
X228127100Y-93810685D01*
X228198528Y-93667828D01*
X228198528Y-93453542D01*
X228127100Y-93310685D01*
X227984242Y-93239257D01*
X227198528Y-93239257D01*
X228698528Y-92667828D02*
X227198528Y-91667828D01*
X228698528Y-91667828D02*
X227198528Y-92667828D01*
X227269957Y-91167828D02*
X227198528Y-91024971D01*
X227198528Y-90739257D01*
X227269957Y-90596400D01*
X227412814Y-90524971D01*
X227484242Y-90524971D01*
X227627100Y-90596400D01*
X227698528Y-90739257D01*
X227698528Y-90953542D01*
X227769957Y-91096400D01*
X227912814Y-91167828D01*
X227984242Y-91167828D01*
X228127100Y-91096400D01*
X228198528Y-90953542D01*
X228198528Y-90739257D01*
X228127100Y-90596400D01*
X228198528Y-90096400D02*
X228198528Y-89524971D01*
X228698528Y-89882114D02*
X227412814Y-89882114D01*
X227269957Y-89810685D01*
X227198528Y-89667828D01*
X227198528Y-89524971D01*
X227198528Y-89024971D02*
X228198528Y-89024971D01*
X228698528Y-89024971D02*
X228627100Y-89096400D01*
X228555671Y-89024971D01*
X228627100Y-88953542D01*
X228698528Y-89024971D01*
X228555671Y-89024971D01*
X227198528Y-88310685D02*
X228198528Y-88310685D01*
X228055671Y-88310685D02*
X228127100Y-88239257D01*
X228198528Y-88096400D01*
X228198528Y-87882114D01*
X228127100Y-87739257D01*
X227984242Y-87667828D01*
X227198528Y-87667828D01*
X227984242Y-87667828D02*
X228127100Y-87596400D01*
X228198528Y-87453542D01*
X228198528Y-87239257D01*
X228127100Y-87096400D01*
X227984242Y-87024971D01*
X227198528Y-87024971D01*
X228555671Y-86382114D02*
X228627100Y-86310685D01*
X228698528Y-86167828D01*
X228698528Y-85810685D01*
X228627100Y-85667828D01*
X228555671Y-85596400D01*
X228412814Y-85524971D01*
X228269957Y-85524971D01*
X228055671Y-85596400D01*
X227198528Y-86453542D01*
X227198528Y-85524971D01*
X224783528Y-109096400D02*
X226283528Y-109096400D01*
X224783528Y-108453542D02*
X225569242Y-108453542D01*
X225712100Y-108524971D01*
X225783528Y-108667828D01*
X225783528Y-108882114D01*
X225712100Y-109024971D01*
X225640671Y-109096400D01*
X225783528Y-107953542D02*
X225783528Y-107382114D01*
X226283528Y-107739257D02*
X224997814Y-107739257D01*
X224854957Y-107667828D01*
X224783528Y-107524971D01*
X224783528Y-107382114D01*
X225783528Y-107096400D02*
X225783528Y-106524971D01*
X226283528Y-106882114D02*
X224997814Y-106882114D01*
X224854957Y-106810685D01*
X224783528Y-106667828D01*
X224783528Y-106524971D01*
X225783528Y-106024971D02*
X224283528Y-106024971D01*
X225712100Y-106024971D02*
X225783528Y-105882114D01*
X225783528Y-105596400D01*
X225712100Y-105453542D01*
X225640671Y-105382114D01*
X225497814Y-105310685D01*
X225069242Y-105310685D01*
X224926385Y-105382114D01*
X224854957Y-105453542D01*
X224783528Y-105596400D01*
X224783528Y-105882114D01*
X224854957Y-106024971D01*
X224854957Y-104739257D02*
X224783528Y-104596400D01*
X224783528Y-104310685D01*
X224854957Y-104167828D01*
X224997814Y-104096400D01*
X225069242Y-104096400D01*
X225212100Y-104167828D01*
X225283528Y-104310685D01*
X225283528Y-104524971D01*
X225354957Y-104667828D01*
X225497814Y-104739257D01*
X225569242Y-104739257D01*
X225712100Y-104667828D01*
X225783528Y-104524971D01*
X225783528Y-104310685D01*
X225712100Y-104167828D01*
X224926385Y-103453542D02*
X224854957Y-103382114D01*
X224783528Y-103453542D01*
X224854957Y-103524971D01*
X224926385Y-103453542D01*
X224783528Y-103453542D01*
X225712100Y-103453542D02*
X225640671Y-103382114D01*
X225569242Y-103453542D01*
X225640671Y-103524971D01*
X225712100Y-103453542D01*
X225569242Y-103453542D01*
X226354957Y-101667828D02*
X224426385Y-102953542D01*
X226354957Y-100096400D02*
X224426385Y-101382114D01*
X225783528Y-98953542D02*
X224569242Y-98953542D01*
X224426385Y-99024971D01*
X224354957Y-99096400D01*
X224283528Y-99239257D01*
X224283528Y-99453542D01*
X224354957Y-99596400D01*
X224854957Y-98953542D02*
X224783528Y-99096400D01*
X224783528Y-99382114D01*
X224854957Y-99524971D01*
X224926385Y-99596400D01*
X225069242Y-99667828D01*
X225497814Y-99667828D01*
X225640671Y-99596400D01*
X225712100Y-99524971D01*
X225783528Y-99382114D01*
X225783528Y-99096400D01*
X225712100Y-98953542D01*
X224783528Y-98239257D02*
X225783528Y-98239257D01*
X226283528Y-98239257D02*
X226212100Y-98310685D01*
X226140671Y-98239257D01*
X226212100Y-98167828D01*
X226283528Y-98239257D01*
X226140671Y-98239257D01*
X225783528Y-97739257D02*
X225783528Y-97167828D01*
X226283528Y-97524971D02*
X224997814Y-97524971D01*
X224854957Y-97453542D01*
X224783528Y-97310685D01*
X224783528Y-97167828D01*
X224783528Y-96667828D02*
X226283528Y-96667828D01*
X224783528Y-96024971D02*
X225569242Y-96024971D01*
X225712100Y-96096400D01*
X225783528Y-96239257D01*
X225783528Y-96453542D01*
X225712100Y-96596400D01*
X225640671Y-96667828D01*
X225783528Y-94667828D02*
X224783528Y-94667828D01*
X225783528Y-95310685D02*
X224997814Y-95310685D01*
X224854957Y-95239257D01*
X224783528Y-95096400D01*
X224783528Y-94882114D01*
X224854957Y-94739257D01*
X224926385Y-94667828D01*
X224783528Y-93953542D02*
X226283528Y-93953542D01*
X225712100Y-93953542D02*
X225783528Y-93810685D01*
X225783528Y-93524971D01*
X225712100Y-93382114D01*
X225640671Y-93310685D01*
X225497814Y-93239257D01*
X225069242Y-93239257D01*
X224926385Y-93310685D01*
X224854957Y-93382114D01*
X224783528Y-93524971D01*
X224783528Y-93810685D01*
X224854957Y-93953542D01*
X224926385Y-92596400D02*
X224854957Y-92524971D01*
X224783528Y-92596400D01*
X224854957Y-92667828D01*
X224926385Y-92596400D01*
X224783528Y-92596400D01*
X224854957Y-91239257D02*
X224783528Y-91382114D01*
X224783528Y-91667828D01*
X224854957Y-91810685D01*
X224926385Y-91882114D01*
X225069242Y-91953542D01*
X225497814Y-91953542D01*
X225640671Y-91882114D01*
X225712100Y-91810685D01*
X225783528Y-91667828D01*
X225783528Y-91382114D01*
X225712100Y-91239257D01*
X224783528Y-90382114D02*
X224854957Y-90524971D01*
X224926385Y-90596400D01*
X225069242Y-90667828D01*
X225497814Y-90667828D01*
X225640671Y-90596400D01*
X225712100Y-90524971D01*
X225783528Y-90382114D01*
X225783528Y-90167828D01*
X225712100Y-90024971D01*
X225640671Y-89953542D01*
X225497814Y-89882114D01*
X225069242Y-89882114D01*
X224926385Y-89953542D01*
X224854957Y-90024971D01*
X224783528Y-90167828D01*
X224783528Y-90382114D01*
X224783528Y-89239257D02*
X225783528Y-89239257D01*
X225640671Y-89239257D02*
X225712100Y-89167828D01*
X225783528Y-89024971D01*
X225783528Y-88810685D01*
X225712100Y-88667828D01*
X225569242Y-88596400D01*
X224783528Y-88596400D01*
X225569242Y-88596400D02*
X225712100Y-88524971D01*
X225783528Y-88382114D01*
X225783528Y-88167828D01*
X225712100Y-88024971D01*
X225569242Y-87953542D01*
X224783528Y-87953542D01*
X226354957Y-86167828D02*
X224426385Y-87453542D01*
X226283528Y-85382114D02*
X226283528Y-85096400D01*
X226212100Y-84953542D01*
X226069242Y-84810685D01*
X225783528Y-84739257D01*
X225283528Y-84739257D01*
X224997814Y-84810685D01*
X224854957Y-84953542D01*
X224783528Y-85096400D01*
X224783528Y-85382114D01*
X224854957Y-85524971D01*
X224997814Y-85667828D01*
X225283528Y-85739257D01*
X225783528Y-85739257D01*
X226069242Y-85667828D01*
X226212100Y-85524971D01*
X226283528Y-85382114D01*
X225783528Y-84096400D02*
X224283528Y-84096400D01*
X225712100Y-84096400D02*
X225783528Y-83953542D01*
X225783528Y-83667828D01*
X225712100Y-83524971D01*
X225640671Y-83453542D01*
X225497814Y-83382114D01*
X225069242Y-83382114D01*
X224926385Y-83453542D01*
X224854957Y-83524971D01*
X224783528Y-83667828D01*
X224783528Y-83953542D01*
X224854957Y-84096400D01*
X224854957Y-82167828D02*
X224783528Y-82310685D01*
X224783528Y-82596400D01*
X224854957Y-82739257D01*
X224997814Y-82810685D01*
X225569242Y-82810685D01*
X225712100Y-82739257D01*
X225783528Y-82596400D01*
X225783528Y-82310685D01*
X225712100Y-82167828D01*
X225569242Y-82096400D01*
X225426385Y-82096400D01*
X225283528Y-82810685D01*
X225783528Y-81453542D02*
X224783528Y-81453542D01*
X225640671Y-81453542D02*
X225712100Y-81382114D01*
X225783528Y-81239257D01*
X225783528Y-81024971D01*
X225712100Y-80882114D01*
X225569242Y-80810685D01*
X224783528Y-80810685D01*
X226283528Y-80239257D02*
X224783528Y-79239257D01*
X226283528Y-79239257D02*
X224783528Y-80239257D01*
X224854957Y-78739257D02*
X224783528Y-78596400D01*
X224783528Y-78310685D01*
X224854957Y-78167828D01*
X224997814Y-78096400D01*
X225069242Y-78096400D01*
X225212100Y-78167828D01*
X225283528Y-78310685D01*
X225283528Y-78524971D01*
X225354957Y-78667828D01*
X225497814Y-78739257D01*
X225569242Y-78739257D01*
X225712100Y-78667828D01*
X225783528Y-78524971D01*
X225783528Y-78310685D01*
X225712100Y-78167828D01*
X225783528Y-77667828D02*
X225783528Y-77096400D01*
X226283528Y-77453542D02*
X224997814Y-77453542D01*
X224854957Y-77382114D01*
X224783528Y-77239257D01*
X224783528Y-77096400D01*
X224783528Y-76596400D02*
X225783528Y-76596400D01*
X226283528Y-76596400D02*
X226212100Y-76667828D01*
X226140671Y-76596400D01*
X226212100Y-76524971D01*
X226283528Y-76596400D01*
X226140671Y-76596400D01*
X224783528Y-75882114D02*
X225783528Y-75882114D01*
X225640671Y-75882114D02*
X225712100Y-75810685D01*
X225783528Y-75667828D01*
X225783528Y-75453542D01*
X225712100Y-75310685D01*
X225569242Y-75239257D01*
X224783528Y-75239257D01*
X225569242Y-75239257D02*
X225712100Y-75167828D01*
X225783528Y-75024971D01*
X225783528Y-74810685D01*
X225712100Y-74667828D01*
X225569242Y-74596400D01*
X224783528Y-74596400D01*
D11*
X202669685Y-116574866D02*
X202193495Y-116574866D01*
X202764923Y-116860580D02*
X202431590Y-115860580D01*
X202098257Y-116860580D01*
X201241114Y-116860580D02*
X201812542Y-116860580D01*
X201526828Y-116860580D02*
X201526828Y-115860580D01*
X201622066Y-116003438D01*
X201717304Y-116098676D01*
X201812542Y-116146295D01*
D12*
X167637000Y-84986400D02*
X167637000Y-73306400D01*
X173987000Y-63776400D02*
X238637000Y-63776400D01*
X240287000Y-114706400D02*
X240287000Y-117376400D01*
X173987000Y-117376400D02*
X173987000Y-114196400D01*
X238637000Y-63776400D02*
X240287000Y-65426400D01*
X240287000Y-76856400D02*
X242827000Y-79396400D01*
X173987000Y-84986400D02*
X167637000Y-84986400D01*
X172087000Y-105056400D02*
X173987000Y-105056400D01*
X242827000Y-79396400D02*
X242827000Y-112166400D01*
X242827000Y-112166400D02*
X240287000Y-114706400D01*
X173987000Y-73306400D02*
X173987000Y-63776400D01*
X240287000Y-65426400D02*
X240287000Y-76856400D01*
X172087000Y-114196400D02*
X172087000Y-105056400D01*
X167637000Y-73306400D02*
X173987000Y-73306400D01*
X173987000Y-105056400D02*
X173987000Y-84986400D01*
X173987000Y-114196400D02*
X172087000Y-114196400D01*
X240287000Y-117376400D02*
X173987000Y-117376400D01*
%LPC*%
D13*
X237241000Y-104292400D03*
D14*
X234701000Y-104292400D03*
D15*
X209448400Y-95109600D03*
X209448400Y-83909600D03*
D16*
X216948400Y-92009600D03*
X216948400Y-87009600D03*
X216948400Y-89509600D03*
D17*
X202448400Y-92009600D03*
D16*
X202448400Y-87009600D03*
D18*
X239636000Y-97332800D03*
D19*
X234936000Y-100732800D03*
X234936000Y-93732800D03*
D20*
X180949600Y-84490400D03*
D21*
X180949600Y-92090400D03*
D13*
X234640200Y-76809600D03*
D14*
X237180200Y-76809600D03*
D13*
X177008000Y-101396800D03*
D14*
X179548000Y-101396800D03*
X187168000Y-101396800D03*
X189708000Y-101396800D03*
X192248000Y-101396800D03*
X194788000Y-101396800D03*
D13*
X222212800Y-70764400D03*
D14*
X224752800Y-70764400D03*
X227292800Y-70764400D03*
X229832800Y-70764400D03*
D18*
X239585200Y-83667600D03*
D19*
X234885200Y-87067600D03*
X234885200Y-80067600D03*
D13*
X177008000Y-80111600D03*
D14*
X179548000Y-80111600D03*
X187168000Y-80111600D03*
X189708000Y-80111600D03*
X192248000Y-80111600D03*
X194788000Y-80111600D03*
D13*
X176530000Y-67152600D03*
D14*
X176530000Y-69692600D03*
D22*
X178645100Y-114046000D03*
D23*
X181145100Y-114046000D03*
X183645100Y-114046000D03*
D13*
X237241000Y-90525600D03*
D14*
X234701000Y-90525600D03*
D24*
X202057000Y-114706400D03*
D25*
X204597000Y-114706400D03*
X207137000Y-114706400D03*
X209677000Y-114706400D03*
X212217000Y-114706400D03*
X214757000Y-114706400D03*
X217297000Y-114706400D03*
X219837000Y-114706400D03*
X224917000Y-114706400D03*
X227457000Y-114706400D03*
X229997000Y-114706400D03*
X232537000Y-114706400D03*
X235077000Y-114706400D03*
X237617000Y-114706400D03*
X237617000Y-66446400D03*
X235077000Y-66446400D03*
X232537000Y-66446400D03*
X229997000Y-66446400D03*
X227457000Y-66446400D03*
X224917000Y-66446400D03*
X222377000Y-66446400D03*
X219837000Y-66446400D03*
X215777000Y-66446400D03*
X213237000Y-66446400D03*
X210697000Y-66446400D03*
X208157000Y-66446400D03*
X205617000Y-66446400D03*
X203077000Y-66446400D03*
X200537000Y-66446400D03*
X197997000Y-66446400D03*
X195457000Y-66446400D03*
X192917000Y-66446400D03*
M02*
