G04 #@! TF.GenerationSoftware,KiCad,Pcbnew,(6.0.4)*
G04 #@! TF.CreationDate,2023-10-19T14:50:22+10:00*
G04 #@! TF.ProjectId,OpenXstim,4f70656e-5873-4746-996d-2e6b69636164,rev?*
G04 #@! TF.SameCoordinates,Original*
G04 #@! TF.FileFunction,Soldermask,Bot*
G04 #@! TF.FilePolarity,Negative*
%FSLAX46Y46*%
G04 Gerber Fmt 4.6, Leading zero omitted, Abs format (unit mm)*
G04 Created by KiCad (PCBNEW (6.0.4)) date 2023-10-19 14:50:22*
%MOMM*%
%LPD*%
G01*
G04 APERTURE LIST*
%ADD10R,1.700000X1.700000*%
%ADD11O,1.700000X1.700000*%
%ADD12C,2.600000*%
%ADD13C,1.800000*%
%ADD14R,1.800000X1.800000*%
%ADD15O,1.508000X3.016000*%
%ADD16O,3.016000X1.508000*%
%ADD17R,2.000000X2.000000*%
%ADD18C,2.000000*%
%ADD19R,1.408000X1.408000*%
%ADD20C,1.408000*%
%ADD21R,1.600000X1.600000*%
%ADD22O,1.600000X1.600000*%
G04 APERTURE END LIST*
D10*
X237241000Y-104292400D03*
D11*
X234701000Y-104292400D03*
D12*
X209448400Y-95109600D03*
X209448400Y-83909600D03*
D13*
X216948400Y-92009600D03*
X216948400Y-87009600D03*
X216948400Y-89509600D03*
D14*
X202448400Y-92009600D03*
D13*
X202448400Y-87009600D03*
D15*
X239636000Y-97332800D03*
D16*
X234936000Y-100732800D03*
X234936000Y-93732800D03*
D17*
X180949600Y-84490400D03*
D18*
X180949600Y-92090400D03*
D10*
X234640200Y-76809600D03*
D11*
X237180200Y-76809600D03*
D10*
X177008000Y-101396800D03*
D11*
X179548000Y-101396800D03*
X187168000Y-101396800D03*
X189708000Y-101396800D03*
X192248000Y-101396800D03*
X194788000Y-101396800D03*
D10*
X222212800Y-70764400D03*
D11*
X224752800Y-70764400D03*
X227292800Y-70764400D03*
X229832800Y-70764400D03*
D15*
X239585200Y-83667600D03*
D16*
X234885200Y-87067600D03*
X234885200Y-80067600D03*
D10*
X177008000Y-80111600D03*
D11*
X179548000Y-80111600D03*
X187168000Y-80111600D03*
X189708000Y-80111600D03*
X192248000Y-80111600D03*
X194788000Y-80111600D03*
D10*
X176530000Y-67152600D03*
D11*
X176530000Y-69692600D03*
D19*
X178645100Y-114046000D03*
D20*
X181145100Y-114046000D03*
X183645100Y-114046000D03*
D10*
X237241000Y-90525600D03*
D11*
X234701000Y-90525600D03*
D21*
X202057000Y-114706400D03*
D22*
X204597000Y-114706400D03*
X207137000Y-114706400D03*
X209677000Y-114706400D03*
X212217000Y-114706400D03*
X214757000Y-114706400D03*
X217297000Y-114706400D03*
X219837000Y-114706400D03*
X224917000Y-114706400D03*
X227457000Y-114706400D03*
X229997000Y-114706400D03*
X232537000Y-114706400D03*
X235077000Y-114706400D03*
X237617000Y-114706400D03*
X237617000Y-66446400D03*
X235077000Y-66446400D03*
X232537000Y-66446400D03*
X229997000Y-66446400D03*
X227457000Y-66446400D03*
X224917000Y-66446400D03*
X222377000Y-66446400D03*
X219837000Y-66446400D03*
X215777000Y-66446400D03*
X213237000Y-66446400D03*
X210697000Y-66446400D03*
X208157000Y-66446400D03*
X205617000Y-66446400D03*
X203077000Y-66446400D03*
X200537000Y-66446400D03*
X197997000Y-66446400D03*
X195457000Y-66446400D03*
X192917000Y-66446400D03*
M02*
